<?xml version="1.0" standalone="no"?><!DOCTYPE svg PUBLIC "-//W3C//DTD SVG 1.1//EN" "http://www.w3.org/Graphics/SVG/1.1/DTD/svg11.dtd"><svg height="1024" node-id="1" sillyvg="true" template-height="1024" template-width="1024" version="1.1" viewBox="0 0 1024 1024" width="1024" xmlns="http://www.w3.org/2000/svg" xmlns:xlink="http://www.w3.org/1999/xlink"><defs node-id="64"></defs><path d="M 93.20 917.50 C 93.20 935.90 108.10 950.90 126.60 950.90 C 145.10 950.90 160.00 936.00 160.00 917.50 C 160.00 899.00 145.10 884.10 126.60 884.10 L 126.60 917.50 L 93.20 917.50 Z" fill="#a1d7ff" fill-rule="nonzero" node-id="68" stroke="none" target-height="66.80005" target-width="66.8" target-x="93.2" target-y="884.1"></path><path d="M 120.90 877.60 L 120.90 911.00 L 87.60 911.00 C 87.50 892.60 102.50 877.60 120.90 877.60 C 120.90 877.60 120.90 877.60 120.90 877.60 Z" fill="#6bbfff" fill-rule="nonzero" node-id="70" stroke="none" target-height="33.400024" target-width="33.4" target-x="87.5" target-y="877.6"></path><g node-id="197"><path d="M 757.30 681.00 L 716.40 675.80 C 713.10 665.50 708.90 655.50 704.00 645.90 L 729.30 613.30 C 739.50 600.10 738.30 581.50 726.60 570.20 L 692.30 535.90 C 680.70 524.10 662.10 522.90 649.10 533.10 L 616.60 558.40 C 607.00 553.50 597.00 549.30 586.70 546.00 L 581.50 505.10 C 579.50 488.70 565.60 476.40 549.10 476.30 L 500.30 476.30 C 483.80 476.30 470.00 488.60 468.00 505.00 L 462.80 545.90 C 452.50 549.20 442.50 553.40 432.90 558.30 L 400.30 533.00 C 387.20 522.80 368.50 524.00 357.20 535.70 L 322.90 570.00 C 311.10 581.60 309.90 600.20 320.10 613.20 L 345.40 645.70 C 340.50 655.30 336.30 665.30 333.00 675.60 L 292.20 680.80 C 275.80 682.80 263.50 696.70 263.50 713.20 L 263.50 762.00 C 263.50 778.50 275.80 792.40 292.20 794.40 L 333.10 799.60 C 336.40 809.90 340.60 819.90 345.50 829.50 L 320.20 862.10 C 310.00 875.30 311.20 893.90 322.90 905.20 L 357.20 939.50 C 368.80 951.30 387.40 952.50 400.40 942.20 L 433.00 916.90 C 442.60 921.80 452.60 926.00 462.90 929.30 L 468.10 970.10 C 470.10 986.50 483.90 998.80 500.50 998.90 L 549.30 998.90 C 565.80 998.90 579.70 986.60 581.70 970.20 L 586.90 929.30 C 597.20 926.00 607.20 921.80 616.80 916.90 L 649.30 942.20 C 662.50 952.40 681.10 951.20 692.40 939.50 L 726.70 905.20 C 738.50 893.60 739.70 875.00 729.50 862.00 L 704.00 829.60 C 708.90 820.00 713.10 810.00 716.40 799.70 L 757.20 794.50 C 773.60 792.60 785.90 778.70 786.00 762.10 L 786.00 713.30 C 786.00 696.90 773.70 683.00 757.30 681.00 Z M 524.70 846.60 C 464.60 846.60 415.80 797.90 415.80 737.70 C 415.80 677.60 464.50 628.80 524.70 628.80 C 584.90 628.80 633.60 677.50 633.60 737.70 C 633.60 737.70 633.60 737.70 633.60 737.70 C 633.50 797.80 584.80 846.50 524.70 846.60 Z" fill="#d7e7ff" fill-opacity="0.2" fill-rule="nonzero" group-id="1" node-id="74" stroke="none" target-height="522.60004" target-width="522.5" target-x="263.5" target-y="476.3"></path><path d="M 601.70 737.80 C 601.70 780.33 567.23 814.80 524.70 814.80 C 482.17 814.80 447.70 780.33 447.70 737.80 C 447.70 695.27 482.17 660.80 524.70 660.80 C 567.23 660.80 601.70 695.27 601.70 737.80 Z" fill="#d7e7ff" fill-opacity="0.2" fill-rule="nonzero" group-id="1" node-id="76" stroke="none" target-height="154" target-width="154" target-x="447.7" target-y="660.8"></path></g><path d="M 917.50 280.10 L 878.90 275.20 C 875.80 265.50 871.80 256.10 867.20 247.00 L 891.00 216.30 C 900.60 204.10 899.60 186.60 888.50 175.70 L 856.20 143.40 C 845.30 132.30 827.70 131.10 815.40 140.80 L 784.70 164.60 C 775.60 160.00 766.20 156.10 756.50 152.90 L 751.60 114.40 C 749.80 98.90 736.60 87.30 721.10 87.30 L 675.10 87.30 C 659.60 87.30 646.50 98.90 644.60 114.30 L 639.70 152.90 C 630.00 156.00 620.60 159.90 611.50 164.60 L 580.80 140.80 C 568.60 131.20 551.10 132.30 540.20 143.30 L 507.80 175.60 C 496.70 186.50 495.50 204.10 505.20 216.40 L 529.00 247.10 C 524.40 256.20 520.50 265.60 517.30 275.30 L 478.80 280.20 C 463.30 282.00 451.70 295.10 451.70 310.70 L 451.70 356.70 C 451.70 372.20 463.30 385.30 478.70 387.20 L 517.30 392.10 C 520.50 401.80 524.40 411.20 529.00 420.30 L 505.20 451.00 C 495.60 463.20 496.60 480.70 507.70 491.60 L 540.00 523.90 C 550.90 535.00 568.50 536.10 580.80 526.50 L 611.50 502.60 C 620.60 507.20 630.00 511.20 639.70 514.30 L 644.60 552.80 C 646.40 568.30 659.50 579.90 675.10 579.90 L 721.10 579.90 C 736.60 579.90 749.70 568.30 751.60 552.90 L 756.50 514.30 C 766.20 511.20 775.60 507.20 784.70 502.60 L 815.40 526.40 C 827.60 536.00 845.10 534.90 856.00 523.80 L 888.30 491.50 C 899.40 480.60 900.60 463.00 890.90 450.70 L 867.10 420.00 C 871.80 410.90 875.70 401.50 878.80 391.80 L 917.30 386.90 C 932.80 385.10 944.40 372.00 944.40 356.40 L 944.40 310.40 C 944.50 295.00 932.90 281.90 917.50 280.10 L 917.50 280.10 Z M 698.10 436.20 C 641.40 436.20 595.40 390.20 595.40 333.50 C 595.40 276.80 641.40 230.80 698.10 230.80 C 754.80 230.80 800.80 276.80 800.80 333.50 C 800.80 333.50 800.80 333.50 800.80 333.50 C 800.70 390.30 754.80 436.20 698.10 436.20 Z" fill="#f3f7ff" fill-rule="nonzero" node-id="79" stroke="none" target-height="492.60004" target-width="492.8" target-x="451.7" target-y="87.3"></path><path d="M 770.70 333.60 C 770.70 373.70 738.20 406.20 698.10 406.20 C 658.00 406.20 625.50 373.70 625.50 333.60 C 625.50 293.50 658.00 261.00 698.10 261.00 C 738.20 261.00 770.70 293.50 770.70 333.60 Z" fill="#f3f7ff" fill-rule="nonzero" node-id="81" stroke="none" target-height="145.19998" target-width="145.19989" target-x="625.5" target-y="261"></path><path d="M 876.90 360.00 L 876.90 769.00 C 876.90 795.40 857.90 816.70 834.60 816.70 L 144.10 816.70 C 120.70 816.70 101.80 795.30 101.80 769.00 L 101.80 360.00 L 876.90 360.00 Z" fill="#bad6f7" fill-rule="nonzero" node-id="83" stroke="none" target-height="456.70007" target-width="775.10004" target-x="101.80001" target-y="360"></path><path d="M 109.70 305.00 L 869.00 305.00 C 873.40 305.00 876.90 308.50 876.90 312.90 L 876.90 360.00 L 876.90 360.00 L 101.80 360.00 L 101.80 360.00 L 101.80 312.90 C 101.70 308.50 105.30 305.00 109.70 305.00 L 109.70 305.00 Z" fill="#253369" fill-rule="nonzero" node-id="85" stroke="none" target-height="55" target-width="775.2" target-x="101.7" target-y="305"></path><path d="M 142.90 417.00 L 263.30 417.00 L 263.30 537.40 L 142.90 537.40 Z" fill="#ffffff" fill-rule="nonzero" node-id="87" stroke="none" target-height="120.400024" target-width="120.399994" target-x="142.9" target-y="417"></path><path d="M 155.00 527.20 L 253.60 527.20 L 220.80 465.30 L 193.40 506.90 L 177.10 485.00 Z" fill="#6bbfff" fill-rule="nonzero" node-id="89" stroke="none" target-height="61.900024" target-width="98.600006" target-x="155" target-y="465.3"></path><path d="M 191.10 450.50 C 191.10 456.30 186.40 461.10 180.60 461.10 C 174.80 461.10 170.00 456.40 170.00 450.60 C 170.00 444.80 174.70 440.00 180.50 440.00 C 180.50 440.00 180.50 440.00 180.50 440.00 C 186.40 440.00 191.10 444.70 191.10 450.50 Z" fill="#faa632" fill-rule="nonzero" node-id="91" stroke="none" target-height="21.100006" target-width="21.100006" target-x="170" target-y="440"></path><path d="M 299.60 440.40 L 519.30 440.40 L 519.30 447.70 L 299.60 447.70 Z" fill="#ffffff" fill-rule="nonzero" node-id="93" stroke="none" target-height="7.299988" target-width="219.69998" target-x="299.6" target-y="440.4"></path><path d="M 299.60 469.70 L 445.30 469.70 L 445.30 477.00 L 299.60 477.00 Z" fill="#ffffff" fill-rule="nonzero" node-id="95" stroke="none" target-height="7.3000183" target-width="145.69998" target-x="299.6" target-y="469.69998"></path><path d="M 299.60 505.90 L 519.30 505.90 L 519.30 513.20 L 299.60 513.20 Z" fill="#ffffff" fill-rule="nonzero" node-id="97" stroke="none" target-height="7.3000183" target-width="219.69998" target-x="299.6" target-y="505.9"></path><path d="M 557.30 409.20 L 838.60 409.20 L 838.60 690.50 L 557.30 690.50 Z" fill="#ecf3fe" fill-rule="nonzero" node-id="99" stroke="none" target-height="281.3" target-width="281.3" target-x="557.3" target-y="409.2"></path><path d="M 716.20 675.50 L 715.70 675.00 L 742.00 646.10 L 780.10 646.10 L 780.10 646.90 L 742.30 646.90 Z" fill="#2e688c" fill-rule="nonzero" node-id="101" stroke="none" target-height="29.400024" target-width="64.400024" target-x="715.69995" target-y="646.1"></path><path d="M 757.80 482.50 L 725.10 519.30 C 733.90 527.00 738.90 538.20 738.90 549.90 C 738.90 572.50 720.50 590.90 697.90 590.90 C 675.30 590.90 656.90 572.50 656.90 549.90 C 656.90 527.30 675.30 508.90 697.90 508.90 L 697.90 459.70 C 648.10 459.70 607.60 500.00 607.60 549.90 C 607.60 599.70 647.90 640.20 697.80 640.20 C 747.70 640.20 788.10 599.90 788.10 550.00 C 788.10 524.20 777.10 499.60 757.80 482.50 L 757.80 482.50 Z" fill="#2e688c" fill-rule="nonzero" node-id="103" stroke="none" target-height="180.5" target-width="180.5" target-x="607.6" target-y="459.7"></path><path d="M 757.80 482.50 L 725.10 519.30 C 717.70 512.60 708.00 508.80 697.90 508.90 L 697.90 459.70 C 720.00 459.60 741.40 467.70 757.80 482.50 Z" fill="#cad5e5" fill-rule="nonzero" node-id="105" stroke="none" target-height="59.69998" target-width="59.900024" target-x="697.89996" target-y="459.6"></path><path d="M 653.70 706.60 L 618.00 706.60 L 618.00 705.90 L 653.40 705.90 L 676.50 685.00 L 677.00 685.60 Z" fill="#2e688c" fill-rule="nonzero" node-id="107" stroke="none" target-height="21.599976" target-width="59" target-x="618" target-y="685"></path><path d="M 790.40 646.20 C 790.40 649.90 787.40 652.90 783.70 652.90 C 780.00 652.90 777.00 649.90 777.00 646.20 C 777.00 642.50 780.00 639.50 783.70 639.50 L 783.70 639.50 C 787.50 639.50 790.40 642.50 790.40 646.20 Z" fill="#f28241" fill-rule="nonzero" node-id="109" stroke="none" target-height="13.400024" target-width="13.400024" target-x="777" target-y="639.5"></path><path d="M 621.00 706.20 C 621.00 709.90 618.00 712.90 614.30 712.90 C 610.60 712.90 607.60 709.90 607.60 706.20 C 607.60 702.50 610.60 699.50 614.30 699.50 L 614.30 699.50 C 618.10 699.60 621.00 702.60 621.00 706.20 Z" fill="#f28241" fill-rule="nonzero" node-id="111" stroke="none" target-height="13.400024" target-width="13.400024" target-x="607.6" target-y="699.5"></path><path d="M 177.60 196.70 C 177.60 217.52 160.72 234.40 139.90 234.40 C 119.08 234.40 102.20 217.52 102.20 196.70 C 102.20 175.88 119.08 159.00 139.90 159.00 C 160.72 159.00 177.60 175.88 177.60 196.70 Z" fill="#fcbe32" fill-rule="nonzero" node-id="113" stroke="none" target-height="75.399994" target-width="75.40002" target-x="102.19999" target-y="159"></path><path d="M 157.80 230.00 L 183.70 237.50 L 175.00 210.70 C 175.00 210.70 157.20 219.80 157.80 230.00 Z" fill="#fcbe32" fill-rule="nonzero" node-id="115" stroke="none" target-height="26.800003" target-width="26.499985" target-x="157.2" target-y="210.7"></path><path d="M 124.20 198.00 C 124.20 200.30 122.30 202.10 120.10 202.10 C 117.80 202.10 116.00 200.20 116.00 198.00 C 116.00 195.70 117.80 193.90 120.10 193.90 C 122.30 193.90 124.20 195.70 124.20 198.00 C 124.20 198.00 124.20 198.00 124.20 198.00 Z" fill="#ffffff" fill-rule="nonzero" node-id="117" stroke="none" target-height="8.200012" target-width="8.199997" target-x="116" target-y="193.9"></path><path d="M 142.50 198.00 C 142.50 200.30 140.70 202.10 138.40 202.10 C 136.10 202.10 134.30 200.30 134.30 198.00 C 134.30 195.70 136.10 193.90 138.40 193.90 C 138.40 193.90 138.40 193.90 138.40 193.90 C 140.70 193.90 142.50 195.70 142.50 198.00 C 142.50 198.00 142.50 198.00 142.50 198.00 Z" fill="#ffffff" fill-rule="nonzero" node-id="119" stroke="none" target-height="8.200012" target-width="8.199997" target-x="134.3" target-y="193.9"></path><path d="M 160.80 198.00 C 160.80 200.30 158.90 202.10 156.70 202.10 C 154.50 202.10 152.60 200.20 152.60 198.00 C 152.60 195.70 154.40 193.90 156.70 193.90 C 159.00 193.90 160.80 195.70 160.80 198.00 C 160.80 198.00 160.80 198.00 160.80 198.00 Z" fill="#ffffff" fill-rule="nonzero" node-id="121" stroke="none" target-height="8.200012" target-width="8.199997" target-x="152.6" target-y="193.9"></path><path d="M 687.50 849.00 L 787.00 849.00 C 787.70 849.00 788.20 849.60 788.20 850.20 L 788.20 922.90 C 788.20 923.60 787.60 924.10 787.00 924.10 L 687.50 924.10 C 686.80 924.10 686.30 923.50 686.30 922.90 L 686.30 850.20 C 686.30 849.60 686.90 849.00 687.50 849.00 Z" fill="#eef4ff" fill-rule="nonzero" node-id="123" stroke="none" target-height="75.099976" target-width="101.900024" target-x="686.3" target-y="849"></path><path d="M 788.30 861.40 L 788.30 850.30 C 788.30 849.60 787.70 849.10 787.10 849.10 C 787.10 849.10 787.10 849.10 787.10 849.10 L 687.60 849.10 C 686.90 849.10 686.40 849.60 686.40 850.30 C 686.40 850.30 686.40 850.30 686.40 850.30 L 686.40 861.40 L 788.30 861.40 Z" fill="#6bbfff" fill-rule="nonzero" node-id="125" stroke="none" target-height="12.300049" target-width="101.900024" target-x="686.4" target-y="849.1"></path><path d="M 693.50 853.50 L 744.50 853.50 C 745.20 853.50 745.70 854.10 745.70 854.70 L 745.70 855.50 C 745.70 856.20 745.10 856.70 744.50 856.70 L 693.50 856.70 C 692.80 856.70 692.30 856.10 692.30 855.50 L 692.30 854.70 C 692.30 854.10 692.80 853.50 693.50 853.50 Z" fill="#ffffff" fill-rule="nonzero" node-id="127" stroke="none" target-height="3.2000122" target-width="53.399963" target-x="692.30005" target-y="853.5"></path><path d="M 770.20 855.20 C 770.20 856.50 769.20 857.50 767.90 857.50 C 766.60 857.50 765.60 856.50 765.60 855.20 C 765.60 853.90 766.60 852.90 767.90 852.90 C 767.90 852.90 767.90 852.90 767.90 852.90 C 769.20 852.90 770.20 853.90 770.20 855.20 C 770.20 855.20 770.20 855.20 770.20 855.20 Z" fill="#ffffff" fill-rule="nonzero" node-id="129" stroke="none" target-height="4.5999756" target-width="4.6000977" target-x="765.6" target-y="852.9"></path><path d="M 775.80 855.20 C 775.80 856.50 774.80 857.50 773.50 857.50 C 772.20 857.50 771.20 856.50 771.20 855.20 C 771.20 853.90 772.20 852.90 773.50 852.90 C 774.80 852.90 775.80 853.90 775.80 855.20 C 775.80 855.20 775.80 855.20 775.80 855.20 Z" fill="#ffffff" fill-rule="nonzero" node-id="131" stroke="none" target-height="4.5999756" target-width="4.5999756" target-x="771.2" target-y="852.9"></path><path d="M 781.50 855.20 C 781.50 856.50 780.50 857.50 779.20 857.50 C 777.90 857.50 776.90 856.50 776.90 855.20 C 776.90 853.90 777.90 852.90 779.20 852.90 C 780.40 852.90 781.40 853.90 781.50 855.20 C 781.50 855.20 781.50 855.20 781.50 855.20 Z" fill="#ffffff" fill-rule="nonzero" node-id="133" stroke="none" target-height="4.5999756" target-width="4.5999756" target-x="776.9" target-y="852.9"></path><path d="M 748.30 909.30 C 747.30 909.30 746.50 908.50 746.50 907.50 C 746.50 906.90 746.80 906.40 747.30 906.00 L 766.80 892.50 L 747.30 879.70 C 746.50 879.20 746.20 878.10 746.70 877.30 C 747.20 876.50 748.30 876.20 749.10 876.70 C 749.10 876.70 749.20 876.80 749.20 876.80 L 771.00 891.00 C 771.50 891.30 771.80 891.90 771.80 892.50 C 771.80 893.10 771.50 893.60 771.00 894.00 L 749.30 909.00 C 749.10 909.10 748.70 909.30 748.30 909.30 Z" fill="#168cdb" fill-rule="nonzero" node-id="135" stroke="none" target-height="33.099976" target-width="25.600037" target-x="746.2" target-y="876.2"></path><path d="M 725.20 908.80 C 724.80 908.80 724.50 908.70 724.20 908.50 L 702.50 893.50 C 702.00 893.20 701.70 892.60 701.70 892.00 C 701.70 891.40 702.00 890.90 702.50 890.50 L 724.20 876.30 C 725.00 875.80 726.10 876.00 726.60 876.80 C 727.10 877.60 726.90 878.70 726.10 879.20 L 706.60 892.00 L 726.10 905.50 C 726.90 906.10 727.10 907.10 726.60 907.90 C 726.30 908.60 725.80 908.90 725.20 908.80 L 725.20 908.80 Z" fill="#168cdb" fill-rule="nonzero" node-id="137" stroke="none" target-height="33.100037" target-width="25.399963" target-x="701.7" target-y="875.8"></path><path d="M 730.20 919.60 C 730.10 919.60 729.90 919.60 729.80 919.50 C 728.90 919.30 728.30 918.30 728.50 917.40 C 728.50 917.40 728.50 917.40 728.50 917.40 L 740.60 867.50 C 740.80 866.60 741.70 866.00 742.70 866.20 C 743.60 866.40 744.20 867.30 744.00 868.30 C 744.00 868.30 744.00 868.30 744.00 868.40 L 731.90 918.30 C 731.70 919.00 731.00 919.60 730.20 919.60 Z" fill="#168cdb" fill-rule="nonzero" node-id="139" stroke="none" target-height="53.599976" target-width="15.900024" target-x="728.3" target-y="866"></path><path d="M 212.40 726.70 L 217.00 726.70 L 217.00 731.30 L 212.40 731.30 Z" fill="#ffffff" fill-rule="nonzero" node-id="141" stroke="none" target-height="4.5999756" target-width="4.6000214" target-x="212.39998" target-y="726.7"></path><path d="M 217.00 722.50 L 212.40 722.50 L 212.40 714.00 L 217.00 714.00 L 217.00 722.50 Z M 217.00 709.80 L 212.40 709.80 L 212.40 701.30 L 217.00 701.30 L 217.00 709.80 Z" fill="#ffffff" fill-rule="nonzero" node-id="143" stroke="none" target-height="21.200012" target-width="4.6000214" target-x="212.39998" target-y="701.3"></path><path d="M 217.00 697.00 L 212.40 697.00 L 212.40 690.10 L 219.30 690.10 L 219.30 694.70 L 217.00 694.70 Z" fill="#ffffff" fill-rule="nonzero" node-id="145" stroke="none" target-height="6.9000244" target-width="6.9000244" target-x="212.39998" target-y="690.1"></path><path d="M 416.90 694.70 L 407.50 694.70 L 407.50 690.10 L 416.90 690.10 L 416.90 694.70 Z M 402.80 694.70 L 393.40 694.70 L 393.40 690.10 L 402.80 690.10 L 402.80 694.70 Z M 388.70 694.70 L 379.30 694.70 L 379.30 690.10 L 388.70 690.10 L 388.70 694.70 Z M 374.60 694.70 L 365.20 694.70 L 365.20 690.10 L 374.60 690.10 L 374.60 694.70 Z M 360.50 694.70 L 351.10 694.70 L 351.10 690.10 L 360.50 690.10 L 360.50 694.70 Z M 346.40 694.70 L 337.00 694.70 L 337.00 690.10 L 346.40 690.10 L 346.40 694.70 Z M 332.20 694.70 L 322.80 694.70 L 322.80 690.10 L 332.20 690.10 L 332.20 694.70 Z M 318.10 694.70 L 308.70 694.70 L 308.70 690.10 L 318.10 690.10 L 318.10 694.70 Z M 304.00 694.70 L 294.60 694.70 L 294.60 690.10 L 304.00 690.10 L 304.00 694.70 Z M 289.90 694.70 L 280.50 694.70 L 280.50 690.10 L 289.90 690.10 L 289.90 694.70 Z M 275.80 694.70 L 266.40 694.70 L 266.40 690.10 L 275.80 690.10 L 275.80 694.70 Z M 261.60 694.70 L 252.20 694.70 L 252.20 690.10 L 261.60 690.10 L 261.60 694.70 Z M 247.50 694.70 L 238.10 694.70 L 238.10 690.10 L 247.50 690.10 L 247.50 694.70 Z M 233.40 694.70 L 224.00 694.70 L 224.00 690.10 L 233.40 690.10 L 233.40 694.70 Z" fill="#ffffff" fill-rule="nonzero" node-id="147" stroke="none" target-height="4.6000366" target-width="192.90002" target-x="224" target-y="690.1"></path><path d="M 428.50 697.00 L 423.90 697.00 L 423.90 694.70 L 421.60 694.70 L 421.60 690.10 L 428.50 690.10 Z" fill="#ffffff" fill-rule="nonzero" node-id="149" stroke="none" target-height="6.9000244" target-width="6.899994" target-x="421.6" target-y="690.1"></path><path d="M 428.50 719.70 L 423.90 719.70 L 423.90 712.10 L 428.50 712.10 L 428.50 719.70 Z M 428.50 708.40 L 423.90 708.40 L 423.90 700.80 L 428.50 700.80 L 428.50 708.40 Z" fill="#ffffff" fill-rule="nonzero" node-id="151" stroke="none" target-height="18.900085" target-width="4.600006" target-x="423.9" target-y="700.8"></path><path d="M 423.90 723.50 L 428.50 723.50 L 428.50 728.10 L 423.90 728.10 Z" fill="#ffffff" fill-rule="nonzero" node-id="153" stroke="none" target-height="4.5999756" target-width="4.600006" target-x="423.9" target-y="723.5"></path><path d="M 288.90 734.50 L 284.30 734.50 L 284.30 733.60 L 288.90 733.60 L 288.90 734.50 Z M 288.90 729.00 L 284.30 729.00 L 284.30 719.80 L 288.90 719.80 L 288.90 729.00 Z M 288.90 715.30 L 284.30 715.30 L 284.30 706.10 L 288.90 706.10 L 288.90 715.30 Z M 288.90 701.60 L 284.30 701.60 L 284.30 692.40 L 288.90 692.40 L 288.90 701.60 Z" fill="#ffffff" fill-rule="nonzero" node-id="155" stroke="none" target-height="42.099915" target-width="4.600006" target-x="284.3" target-y="692.4"></path><path d="M 359.00 734.50 L 354.40 734.50 L 354.40 733.60 L 359.00 733.60 L 359.00 734.50 Z M 359.00 729.00 L 354.40 729.00 L 354.40 719.80 L 359.00 719.80 L 359.00 729.00 Z M 359.00 715.30 L 354.40 715.30 L 354.40 706.10 L 359.00 706.10 L 359.00 715.30 Z M 359.00 701.60 L 354.40 701.60 L 354.40 692.40 L 359.00 692.40 L 359.00 701.60 Z" fill="#ffffff" fill-rule="nonzero" node-id="157" stroke="none" target-height="42.099915" target-width="4.5999756" target-x="354.40002" target-y="692.4"></path><path d="M 323.90 693.10 L 319.30 693.10 L 319.30 692.20 L 323.90 692.20 L 323.90 693.10 Z M 323.90 687.60 L 319.30 687.60 L 319.30 678.40 L 323.90 678.40 L 323.90 687.60 Z M 323.90 673.90 L 319.30 673.90 L 319.30 664.70 L 323.90 664.70 L 323.90 673.90 Z M 323.90 660.10 L 319.30 660.10 L 319.30 651.00 L 323.90 651.00 L 323.90 660.10 Z" fill="#ffffff" fill-rule="nonzero" node-id="159" stroke="none" target-height="42.099976" target-width="4.600006" target-x="319.3" target-y="651"></path><path d="M 199.80 733.00 L 230.30 733.00 L 230.30 763.50 L 199.80 763.50 Z" fill="#7d7de2" fill-rule="nonzero" node-id="161" stroke="none" target-height="30.5" target-width="30.499985" target-x="199.80002" target-y="733"></path><path d="M 271.30 733.00 L 301.80 733.00 L 301.80 763.50 L 271.30 763.50 Z" fill="#c7efff" fill-rule="nonzero" node-id="163" stroke="none" target-height="30.5" target-width="30.5" target-x="271.3" target-y="733"></path><path d="M 341.50 733.00 L 372.00 733.00 L 372.00 763.50 L 341.50 763.50 Z" fill="#7d7de2" fill-rule="nonzero" node-id="165" stroke="none" target-height="30.5" target-width="30.5" target-x="341.5" target-y="733"></path><path d="M 411.60 733.00 L 442.10 733.00 L 442.10 763.50 L 411.60 763.50 Z" fill="#3c5b8c" fill-rule="nonzero" node-id="167" stroke="none" target-height="30.5" target-width="30.5" target-x="411.6" target-y="733"></path><path d="M 265.20 638.20 C 265.20 650.50 275.20 660.50 287.50 660.50 C 288.70 660.50 290.00 660.40 291.20 660.20 L 356.80 660.20 C 356.90 660.20 356.90 660.20 357.00 660.20 C 369.00 659.80 378.40 649.80 378.00 637.80 C 377.60 626.30 368.40 617.10 356.90 616.80 C 355.60 609.20 348.30 604.00 340.60 605.40 C 338.70 605.70 336.80 606.50 335.20 607.60 C 329.60 599.00 320.10 594.00 310.00 594.00 C 296.00 594.10 283.90 603.60 280.40 617.10 C 271.40 620.20 265.30 628.70 265.20 638.20 Z" fill="#3a3a77" fill-rule="nonzero" node-id="169" stroke="none" target-height="66.5" target-width="113.19998" target-x="265.2" target-y="594"></path><path d="M 550.50 256.50 L 546.40 252.80 L 553.80 244.70 L 557.90 248.40 L 550.50 256.50 Z M 561.60 244.30 L 557.50 240.60 L 564.90 232.50 L 569.00 236.20 L 561.60 244.30 Z M 572.70 232.10 L 568.60 228.40 L 576.00 220.30 L 580.10 224.00 L 572.70 232.10 Z M 583.80 219.90 L 579.70 216.20 L 587.10 208.10 L 591.20 211.80 L 583.80 219.90 Z M 713.20 214.20 L 704.10 208.00 L 707.20 203.50 L 716.30 209.70 L 713.20 214.20 Z M 720.50 210.50 L 716.40 206.80 L 723.80 198.70 L 727.90 202.40 L 720.50 210.50 Z M 594.90 207.70 L 590.80 204.00 L 598.20 195.90 L 602.30 199.60 L 594.90 207.70 Z M 699.50 205.00 L 690.40 198.80 L 693.50 194.30 L 702.60 200.50 L 699.50 205.00 Z M 731.60 198.30 L 727.50 194.60 L 734.90 186.50 L 739.00 190.20 L 731.60 198.30 Z M 685.90 195.70 L 676.80 189.50 L 679.90 184.90 L 689.00 191.10 L 685.90 195.70 Z M 605.90 195.60 L 601.80 191.90 L 609.20 183.80 L 613.30 187.50 L 605.90 195.60 Z M 672.20 186.50 L 663.10 180.30 L 666.20 175.70 L 675.30 181.90 L 672.20 186.50 Z M 742.70 186.10 L 738.60 182.40 L 746.00 174.30 L 750.10 178.00 L 742.70 186.10 Z M 617.00 183.30 L 612.90 179.60 L 620.30 171.50 L 624.40 175.20 L 617.00 183.30 Z M 658.60 177.20 L 649.50 171.00 L 652.60 166.40 L 661.70 172.60 L 658.60 177.20 Z M 867.50 176.00 L 864.00 171.70 L 872.50 164.80 L 876.00 169.10 L 867.50 176.00 Z M 860.00 174.00 L 853.60 165.00 L 858.10 161.80 L 864.50 170.80 L 860.00 174.00 Z M 753.80 173.90 L 749.70 170.20 L 757.10 162.10 L 761.20 165.80 L 753.80 173.90 Z M 628.10 171.10 L 624.00 167.40 L 631.40 159.30 L 635.50 163.00 L 628.10 171.10 Z M 645.00 167.90 L 635.90 161.70 L 639.00 157.10 L 648.10 163.30 L 645.00 167.90 Z M 880.40 165.70 L 876.90 161.40 L 885.50 154.50 L 889.00 158.80 L 880.40 165.70 Z M 764.90 161.70 L 760.80 158.00 L 768.20 149.90 L 772.30 153.60 L 764.90 161.70 Z M 850.50 160.60 L 844.00 151.60 L 848.50 148.40 L 854.90 157.30 L 850.50 160.60 Z M 893.20 155.30 L 889.70 151.00 L 898.30 144.10 L 901.80 148.40 L 893.20 155.30 Z M 776.00 149.50 L 771.90 145.80 L 779.30 137.70 L 783.40 141.40 L 776.00 149.50 Z M 840.90 147.10 L 834.50 138.10 L 839.00 134.90 L 845.40 143.80 L 840.90 147.10 Z M 906.00 145.00 L 902.50 140.70 L 911.00 133.80 L 914.50 138.10 L 906.00 145.00 Z M 787.00 137.30 L 782.90 133.60 L 790.30 125.50 L 794.40 129.20 L 787.00 137.30 Z M 918.90 134.60 L 915.40 130.30 L 923.90 123.40 L 927.40 127.70 L 918.90 134.60 Z M 831.30 133.70 L 824.90 124.70 L 829.40 121.50 L 835.80 130.50 L 831.30 133.70 Z M 798.10 125.00 L 794.00 121.30 L 801.40 113.20 L 805.50 116.90 L 798.10 125.00 Z M 821.70 120.20 L 815.30 111.20 L 819.80 108.00 L 826.20 117.00 L 821.70 120.20 Z M 809.20 112.80 L 805.10 109.10 L 811.40 102.10 L 815.70 102.30 L 816.60 103.60 L 814.60 105.00 L 815.50 105.80 L 809.20 112.80 Z" fill="#56a8de" fill-rule="nonzero" node-id="171" stroke="none" target-height="154.4" target-width="381" target-x="546.4" target-y="102.1"></path><g node-id="198"><path d="M 551.11 243.55 C 554.05 244.24 556.60 246.08 558.19 248.65 C 559.78 251.22 560.28 254.32 559.59 257.26 C 558.89 260.21 557.06 262.75 554.48 264.34 C 551.91 265.93 548.81 266.43 545.87 265.74 C 542.93 265.05 540.38 263.21 538.79 260.64 C 537.20 258.07 536.70 254.97 537.39 252.03 C 538.09 249.08 539.92 246.54 542.50 244.95 C 545.07 243.36 548.17 242.85 551.11 243.55 Z" fill="#1f758d" fill-rule="nonzero" group-id="2" node-id="175" stroke="none" target-height="23.580292" target-width="23.5802" target-x="536.69934" target-y="242.85391"></path></g><path d="M 645.60 158.90 C 645.60 165.20 640.50 170.30 634.20 170.30 C 627.90 170.30 622.80 165.20 622.80 158.90 C 622.80 152.60 627.90 147.50 634.20 147.50 C 634.20 147.50 634.20 147.50 634.20 147.50 C 640.50 147.50 645.60 152.60 645.60 158.90 Z" fill="#6bbfff" fill-rule="nonzero" node-id="178" stroke="none" target-height="22.800003" target-width="22.799988" target-x="622.8" target-y="147.5"></path><g node-id="199"><path d="M 717.50 200.04 C 720.45 200.74 722.99 202.57 724.58 205.14 C 726.17 207.71 726.68 210.81 725.98 213.76 C 725.29 216.70 723.45 219.24 720.88 220.83 C 718.31 222.42 715.21 222.93 712.27 222.23 C 709.32 221.54 706.78 219.70 705.19 217.13 C 703.60 214.56 703.10 211.46 703.79 208.52 C 704.48 205.58 706.32 203.03 708.89 201.44 C 711.46 199.85 714.56 199.35 717.50 200.04 Z" fill="#faa632" fill-rule="nonzero" group-id="3" node-id="182" stroke="none" target-height="23.580261" target-width="23.5802" target-x="703.09534" target-y="199.34662"></path></g><g node-id="200"><path d="M 816.07 92.90 C 819.01 93.59 821.55 95.42 823.14 98.00 C 824.73 100.57 825.24 103.67 824.54 106.61 C 823.85 109.55 822.01 112.10 819.44 113.69 C 816.87 115.28 813.77 115.78 810.83 115.09 C 807.89 114.39 805.34 112.56 803.75 109.99 C 802.16 107.41 801.66 104.32 802.35 101.37 C 803.05 98.43 804.88 95.88 807.45 94.29 C 810.02 92.70 813.12 92.20 816.07 92.90 Z" fill="#f0781b" fill-rule="nonzero" group-id="4" node-id="187" stroke="none" target-height="23.580261" target-width="23.5802" target-x="801.65686" target-y="92.20087"></path></g><g node-id="201"><path d="M 866.86 162.74 C 869.80 163.44 872.34 165.27 873.93 167.84 C 875.52 170.41 876.03 173.51 875.33 176.45 C 874.64 179.40 872.80 181.94 870.23 183.53 C 867.66 185.12 864.56 185.63 861.62 184.93 C 858.68 184.24 856.13 182.40 854.54 179.83 C 852.95 177.26 852.45 174.16 853.14 171.22 C 853.84 168.28 855.67 165.73 858.24 164.14 C 860.81 162.55 863.91 162.05 866.86 162.74 Z" fill="#6bbfff" fill-rule="nonzero" group-id="5" node-id="192" stroke="none" target-height="23.580261" target-width="23.5802" target-x="852.447" target-y="162.04626"></path></g><path d="M 941.00 122.50 C 941.00 128.80 935.90 133.90 929.60 133.90 C 923.30 133.90 918.20 128.80 918.20 122.50 C 918.20 116.20 923.30 111.10 929.60 111.10 L 929.60 111.10 C 935.90 111.10 941.00 116.20 941.00 122.50 Z" fill="#6bbfff" fill-rule="nonzero" node-id="195" stroke="none" target-height="22.799995" target-width="22.799988" target-x="918.2" target-y="111.1"></path></svg>