<?xml version="1.0" standalone="no"?><!DOCTYPE svg PUBLIC "-//W3C//DTD SVG 1.1//EN" "http://www.w3.org/Graphics/SVG/1.1/DTD/svg11.dtd"><svg height="1024" node-id="1" sillyvg="true" template-height="1024" template-width="1024" version="1.1" viewBox="0 0 1024 1024" width="1024" xmlns="http://www.w3.org/2000/svg" xmlns:xlink="http://www.w3.org/1999/xlink"><defs node-id="116"></defs><g node-id="377"><path d="M 400.00 167.45 L 540.40 166.07 L 540.40 157.49 L 400.00 158.91 L 400.00 167.45 Z" fill="#7595ba" fill-rule="nonzero" group-id="1" node-id="121" stroke="none" target-height="9.959991" target-width="140.40002" target-x="400" target-y="157.49"></path><g node-id="378"><path d="M 672.64 540.21 L 784.78 541.17 L 784.78 549.66 L 672.64 548.78 L 672.64 540.21 Z" fill="#7595ba" fill-opacity="0.1" fill-rule="nonzero" group-id="1,2" node-id="125" stroke="none" target-height="9.449951" target-width="112.140015" target-x="672.64" target-y="540.21"></path><path d="M 1004.67 468.15 L 784.14 464.59 C 779.86 464.52 776.38 468.31 776.38 473.06 L 776.38 606.52 C 776.38 611.27 779.86 615.13 784.14 615.13 L 1004.67 615.54 C 1008.78 615.54 1012.10 611.79 1012.10 607.15 L 1012.10 476.67 C 1012.10 472.00 1008.78 468.21 1004.67 468.15 Z" fill="#aeb7c4" fill-opacity="0.1" fill-rule="nonzero" group-id="1,2" node-id="127" stroke="none" target-height="151.01999" target-width="235.71997" target-x="776.38" target-y="464.52"></path><g node-id="395"><path d="M 786.25 604.22 L 786.25 475.54 L 1002.65 478.81 L 1002.65 604.84 L 786.25 604.22 Z" fill="#ffffff" fill-opacity="0.030000001" fill-rule="nonzero" group-id="1,2,19" node-id="131" stroke="none" target-height="129.30005" target-width="216.40002" target-x="786.25" target-y="475.53998"></path></g><path d="M 793.83 606.23 C 794.93 606.23 795.83 605.33 795.83 604.23 C 795.83 603.13 794.93 602.23 793.83 602.23 L 788.13 602.23 L 788.13 596.23 C 788.18 595.52 787.83 594.84 787.22 594.47 C 786.62 594.10 785.85 594.10 785.25 594.47 C 784.64 594.84 784.29 595.52 784.34 596.23 L 784.34 604.23 C 784.32 604.75 784.51 605.25 784.87 605.62 C 785.22 606.00 785.71 606.22 786.23 606.23 L 793.82 606.23 Z" fill="#ffffff" fill-opacity="0.1" fill-rule="nonzero" group-id="1,2" node-id="134" stroke="none" target-height="12.130371" target-width="11.541626" target-x="784.2884" target-y="594.0996"></path><path d="M 786.25 582.14 C 786.77 582.13 787.26 581.91 787.61 581.54 C 787.97 581.16 788.16 580.66 788.14 580.14 L 788.14 564.05 C 788.19 563.34 787.84 562.66 787.23 562.29 C 786.63 561.92 785.86 561.92 785.26 562.29 C 784.65 562.66 784.30 563.34 784.35 564.05 L 784.35 580.16 C 784.34 580.67 784.53 581.17 784.89 581.54 C 785.25 581.91 785.74 582.13 786.25 582.14 Z M 786.25 549.92 C 786.77 549.91 787.26 549.69 787.61 549.31 C 787.97 548.94 788.16 548.44 788.14 547.92 L 788.14 531.82 C 788.19 531.11 787.84 530.43 787.23 530.06 C 786.63 529.69 785.86 529.69 785.26 530.06 C 784.65 530.43 784.30 531.11 784.35 531.82 L 784.35 547.93 C 784.35 548.99 785.19 549.87 786.25 549.92 Z M 786.25 517.70 C 786.77 517.69 787.26 517.47 787.61 517.09 C 787.97 516.72 788.16 516.22 788.14 515.70 L 788.14 499.60 C 788.19 498.89 787.84 498.21 787.23 497.84 C 786.63 497.47 785.86 497.47 785.26 497.84 C 784.65 498.21 784.30 498.89 784.35 499.60 L 784.35 515.71 C 784.35 516.77 785.19 517.65 786.25 517.70 Z" fill="#ffffff" fill-opacity="0.1" fill-rule="nonzero" group-id="1,2" node-id="136" stroke="none" target-height="84.67044" target-width="3.8931885" target-x="784.2984" target-y="497.46957"></path><path d="M 786.25 485.48 C 786.77 485.47 787.26 485.25 787.61 484.87 C 787.97 484.50 788.16 484.00 788.14 483.48 L 788.14 477.55 L 793.80 477.63 C 794.90 477.65 795.81 476.76 795.83 475.66 C 795.85 474.56 794.96 473.65 793.86 473.63 L 786.28 473.52 C 785.76 473.49 785.26 473.70 784.92 474.09 C 784.55 474.47 784.35 474.97 784.35 475.50 L 784.35 483.45 C 784.33 484.53 785.17 485.43 786.25 485.48 Z" fill="#ffffff" fill-opacity="0.1" fill-rule="nonzero" group-id="1,2" node-id="138" stroke="none" target-height="11.986755" target-width="11.514099" target-x="784.33246" target-y="473.49326"></path><path d="M 979.59 480.45 C 980.69 480.45 981.59 479.55 981.59 478.45 C 981.59 477.35 980.69 476.45 979.59 476.45 L 964.11 476.22 C 963.01 476.20 962.10 477.09 962.08 478.19 C 962.06 479.29 962.95 480.20 964.05 480.22 L 979.53 480.46 Z M 948.59 479.98 C 949.69 479.98 950.59 479.08 950.59 477.98 C 950.59 476.88 949.69 475.98 948.59 475.98 L 933.11 475.74 C 932.58 475.73 932.08 475.95 931.72 476.32 C 931.35 476.70 931.16 477.22 931.19 477.74 C 931.19 478.79 932.00 479.67 933.05 479.74 L 948.53 479.97 Z M 917.59 479.51 C 918.69 479.51 919.59 478.61 919.59 477.51 C 919.59 476.41 918.69 475.51 917.59 475.51 L 902.11 475.28 C 901.59 475.28 901.10 475.48 900.74 475.85 C 900.38 476.22 900.18 476.71 900.19 477.23 C 900.19 478.28 901.00 479.16 902.05 479.23 L 917.53 479.46 Z M 886.59 479.05 C 887.69 479.05 888.59 478.15 888.59 477.05 C 888.59 475.95 887.69 475.05 886.59 475.05 L 871.11 474.82 C 870.01 474.80 869.10 475.69 869.08 476.79 C 869.06 477.89 869.95 478.80 871.05 478.82 L 886.53 479.06 Z M 855.59 478.58 C 856.69 478.58 857.59 477.68 857.59 476.58 C 857.59 475.48 856.69 474.58 855.59 474.58 L 840.11 474.35 C 839.59 474.35 839.08 474.56 838.72 474.94 C 838.36 475.32 838.17 475.83 838.19 476.35 C 838.17 476.86 838.36 477.36 838.71 477.74 C 839.05 478.11 839.54 478.33 840.05 478.35 L 855.53 478.59 Z M 824.59 478.11 C 825.69 478.11 826.59 477.21 826.59 476.11 C 826.59 475.01 825.69 474.11 824.59 474.11 L 809.11 473.87 C 808.01 473.85 807.10 474.74 807.08 475.84 C 807.06 476.94 807.95 477.85 809.05 477.87 L 824.53 478.10 Z" fill="#ffffff" fill-opacity="0.1" fill-rule="nonzero" group-id="1,2" node-id="140" stroke="none" target-height="6.6065674" target-width="174.52661" target-x="807.0634" target-y="473.85342"></path><path d="M 1002.65 488.75 C 1003.72 488.70 1004.55 487.82 1004.55 486.75 L 1004.55 478.80 C 1004.55 477.74 1003.73 476.87 1002.68 476.80 L 995.10 476.69 L 995.10 476.69 C 994.00 476.69 993.10 477.59 993.10 478.69 C 993.10 479.79 994.00 480.69 995.10 480.69 L 1000.82 480.78 L 1000.82 486.78 C 1000.80 487.82 1001.61 488.69 1002.65 488.75 Z" fill="#ffffff" fill-opacity="0.1" fill-rule="nonzero" group-id="1,2" node-id="142" stroke="none" target-height="12.059967" target-width="11.452332" target-x="993.0999" target-y="476.69003"></path><path d="M 1002.65 583.14 C 1003.72 583.09 1004.55 582.21 1004.55 581.14 L 1004.55 565.42 C 1004.60 564.71 1004.25 564.03 1003.64 563.66 C 1003.04 563.29 1002.27 563.29 1001.67 563.66 C 1001.06 564.03 1000.71 564.71 1000.76 565.42 L 1000.76 581.15 C 1000.75 581.66 1000.94 582.16 1001.29 582.54 C 1001.65 582.91 1002.14 583.13 1002.65 583.14 Z M 1002.65 551.68 C 1003.72 551.63 1004.55 550.75 1004.55 549.68 L 1004.55 534.00 C 1004.60 533.29 1004.25 532.61 1003.64 532.24 C 1003.04 531.87 1002.27 531.87 1001.67 532.24 C 1001.06 532.61 1000.71 533.29 1000.76 534.00 L 1000.76 549.73 C 1000.75 550.79 1001.59 551.65 1002.65 551.68 Z M 1002.65 520.21 C 1003.72 520.16 1004.55 519.28 1004.55 518.21 L 1004.55 502.49 C 1004.60 501.78 1004.25 501.10 1003.64 500.73 C 1003.04 500.36 1002.27 500.36 1001.67 500.73 C 1001.06 501.10 1000.71 501.78 1000.76 502.49 L 1000.76 518.22 C 1000.75 518.73 1000.94 519.23 1001.29 519.61 C 1001.65 519.98 1002.14 520.20 1002.65 520.21 Z" fill="#ffffff" fill-opacity="0.1" fill-rule="nonzero" group-id="1,2" node-id="144" stroke="none" target-height="82.780426" target-width="3.8932495" target-x="1000.7083" target-y="500.3596"></path><path d="M 1002.65 606.82 C 1003.16 606.82 1003.64 606.61 1003.99 606.24 C 1004.35 605.86 1004.55 605.36 1004.55 604.84 L 1004.55 596.84 C 1004.60 596.13 1004.25 595.45 1003.64 595.08 C 1003.04 594.71 1002.27 594.71 1001.67 595.08 C 1001.06 595.45 1000.71 596.13 1000.76 596.84 L 1000.76 602.84 L 995.07 602.84 C 993.97 602.84 993.07 603.74 993.07 604.84 C 993.07 605.94 993.97 606.84 995.07 606.84 L 1002.65 606.84 Z" fill="#ffffff" fill-opacity="0.1" fill-rule="nonzero" group-id="1,2" node-id="146" stroke="none" target-height="12.130432" target-width="11.531494" target-x="993.07007" target-y="594.7096"></path><path d="M 979.59 606.76 C 980.69 606.76 981.59 605.86 981.59 604.76 C 981.59 603.66 980.69 602.76 979.59 602.76 L 964.11 602.76 L 964.11 602.76 C 963.01 602.76 962.11 603.66 962.11 604.76 C 962.11 605.86 963.01 606.76 964.11 606.76 L 979.59 606.76 Z M 948.59 606.67 C 949.69 606.67 950.59 605.77 950.59 604.67 C 950.59 603.57 949.69 602.67 948.59 602.67 L 933.11 602.62 L 933.11 602.62 C 932.01 602.62 931.11 603.52 931.11 604.62 C 931.11 605.72 932.01 606.62 933.11 606.62 L 948.59 606.62 Z M 917.59 606.58 C 918.69 606.58 919.59 605.68 919.59 604.58 C 919.59 603.48 918.69 602.58 917.59 602.58 L 902.11 602.53 L 902.11 602.53 C 901.01 602.53 900.11 603.43 900.11 604.53 C 900.11 605.63 901.01 606.53 902.11 606.53 L 917.59 606.53 Z M 886.59 606.49 C 887.69 606.49 888.59 605.59 888.59 604.49 C 888.59 603.39 887.69 602.49 886.59 602.49 L 871.11 602.49 L 871.11 602.49 C 870.01 602.49 869.11 603.39 869.11 604.49 C 869.11 605.59 870.01 606.49 871.11 606.49 L 886.59 606.49 Z M 855.59 606.40 C 856.69 606.40 857.59 605.50 857.59 604.40 C 857.59 603.30 856.69 602.40 855.59 602.40 L 840.11 602.40 L 840.11 602.40 C 839.01 602.40 838.11 603.30 838.11 604.40 C 838.11 605.50 839.01 606.40 840.11 606.40 L 855.59 606.40 Z M 824.59 606.31 C 825.69 606.31 826.59 605.41 826.59 604.31 C 826.59 603.21 825.69 602.31 824.59 602.31 L 809.11 602.31 L 809.11 602.31 C 808.01 602.31 807.11 603.21 807.11 604.31 C 807.11 605.41 808.01 606.31 809.11 606.31 L 824.59 606.31 Z" fill="#ffffff" fill-opacity="0.1" fill-rule="nonzero" group-id="1,2" node-id="148" stroke="none" target-height="4.450012" target-width="174.48004" target-x="807.11" target-y="602.31"></path><path d="M 565.64 862.90 L 736.37 868.00 L 736.37 859.25 L 569.58 854.41 L 569.58 721.09 L 561.70 720.92 L 561.70 858.48 C 561.62 860.77 563.36 862.72 565.64 862.90 Z" fill="#7595ba" fill-opacity="0.1" fill-rule="nonzero" group-id="1,2" node-id="150" stroke="none" target-height="147.08002" target-width="174.75214" target-x="561.6179" target-y="720.92"></path><path d="M 580.20 510.25 L 588.11 510.16 L 588.11 333.00 L 657.80 331.80 C 660.02 331.80 661.80 328.96 661.80 325.55 L 661.80 205.17 L 653.80 205.41 L 653.80 319.54 L 584.17 320.82 C 581.98 320.82 580.17 323.64 580.17 327.03 Z" fill="#7595ba" fill-opacity="0.1" fill-rule="nonzero" group-id="1,2" node-id="152" stroke="none" target-height="305.07996" target-width="81.630005" target-x="580.17" target-y="205.17"></path><path d="M 496.87 551.20 L 513.00 551.12 L 513.00 380.12 C 513.00 377.25 509.38 374.96 504.93 374.99 L 339.00 376.27 L 339.00 386.55 L 496.87 385.44 Z" fill="#7595ba" fill-opacity="0.1" fill-rule="nonzero" group-id="1,2" node-id="154" stroke="none" target-height="176.24002" target-width="174" target-x="339" target-y="374.96"></path><path d="M 434.10 669.16 L 242.00 670.12 L 242.00 678.61 L 434.10 677.73 L 434.10 669.16 Z" fill="#7595ba" fill-opacity="0.1" fill-rule="nonzero" group-id="1,2" node-id="156" stroke="none" target-height="9.450012" target-width="192.1" target-x="242" target-y="669.16"></path><path d="M 372.45 816.37 L 371.77 741.60 L 479.26 735.60 L 479.19 725.48 L 363.11 731.48 L 363.82 816.37 L 372.45 816.37 Z" fill="#7595ba" fill-opacity="0.1" fill-rule="nonzero" group-id="1,2" node-id="158" stroke="none" target-height="90.890015" target-width="116.150024" target-x="363.11" target-y="725.48"></path><path d="M 131.79 101.34 L 400.20 92.00 C 404.41 91.85 407.82 95.49 407.82 100.13 L 407.82 230.42 C 407.82 235.06 404.41 238.88 400.20 238.97 L 131.79 244.51 C 127.79 244.59 124.58 241.00 124.58 236.51 L 124.58 109.76 C 124.58 105.25 127.81 101.48 131.79 101.34 Z" fill="#434988" fill-opacity="0.1" fill-rule="nonzero" group-id="1,2" node-id="160" stroke="none" target-height="152.74" target-width="283.24" target-x="124.58" target-y="91.84999"></path><path d="M 720.80 778.09 L 964.00 783.51 C 968.77 783.76 972.48 787.74 972.40 792.51 L 972.40 929.33 C 972.47 931.59 971.61 933.78 970.03 935.38 C 968.44 936.99 966.26 937.87 964.00 937.83 L 720.77 928.93 C 716.34 928.77 712.77 924.79 712.77 920.04 L 712.77 786.52 C 712.79 781.77 716.37 778.00 720.80 778.09 Z" fill="#434988" fill-opacity="0.1" fill-rule="nonzero" group-id="1,2" node-id="162" stroke="none" target-height="159.87494" target-width="259.7118" target-x="712.77" target-y="778"></path><path d="M 127.83 99.27 L 396.24 89.89 C 400.45 89.75 403.86 93.38 403.86 98.02 L 403.86 228.35 C 403.86 232.98 400.45 236.81 396.24 236.90 L 127.83 242.43 C 123.83 242.51 120.62 238.93 120.62 234.43 L 120.62 107.68 C 120.62 103.18 123.85 99.41 127.83 99.27 Z" fill="#aeb7c4" fill-opacity="0.1" fill-rule="nonzero" group-id="1,2" node-id="164" stroke="none" target-height="152.76001" target-width="283.24" target-x="120.62" target-y="89.74999"></path><path d="M 805.17 199.00 L 805.17 101.48 C 805.17 97.68 803.63 94.05 800.90 91.41 C 798.17 88.77 794.49 87.35 790.69 87.48 L 554.32 95.48 C 546.77 95.73 540.79 101.93 540.79 109.48 L 540.79 204.05 C 540.79 207.82 542.31 211.43 545.00 214.06 C 547.69 216.70 551.33 218.13 555.10 218.05 L 791.47 212.93 C 799.06 212.77 805.13 206.59 805.17 199.00 Z" fill="#aeb7c4" fill-opacity="0.1" fill-rule="nonzero" group-id="1,2" node-id="166" stroke="none" target-height="130.78363" target-width="264.38647" target-x="540.78577" target-y="87.34979"></path><path d="M 716.84 782.16 L 960.07 787.58 C 964.84 787.82 968.56 791.80 968.47 796.58 L 968.47 933.40 C 968.54 935.66 967.68 937.85 966.10 939.45 C 964.51 941.06 962.33 941.95 960.07 941.90 L 716.84 933.00 C 712.41 932.84 708.84 928.86 708.84 924.11 L 708.84 790.58 C 708.83 785.83 712.41 782.06 716.84 782.16 Z" fill="#d8dee8" fill-opacity="0.1" fill-rule="nonzero" group-id="1,2" node-id="168" stroke="none" target-height="159.88501" target-width="259.727" target-x="708.83" target-y="782.06"></path><path d="M 133.81 329.73 L 342.28 326.37 C 346.33 326.30 349.62 329.89 349.62 334.37 L 349.62 460.54 C 349.62 465.03 346.33 468.68 342.28 468.68 L 133.81 469.06 C 129.93 469.06 126.81 465.52 126.81 461.13 L 126.81 337.79 C 126.78 333.40 129.93 329.80 133.81 329.73 Z" fill="#424784" fill-opacity="0.1" fill-rule="nonzero" group-id="1,2" node-id="170" stroke="none" target-height="142.76001" target-width="222.83997" target-x="126.78" target-y="326.3"></path><path d="M 130.00 327.71 L 338.48 324.35 C 342.53 324.28 345.81 327.87 345.81 332.35 L 345.81 458.52 C 345.81 463.01 342.53 466.65 338.48 466.66 L 130.00 467.00 C 126.12 467.00 123.00 463.46 123.00 459.07 L 123.00 335.77 C 122.93 331.38 126.07 327.78 130.00 327.71 Z" fill="#d8dee8" fill-opacity="0.1" fill-rule="nonzero" group-id="1,2" node-id="172" stroke="none" target-height="142.72" target-width="222.88" target-x="122.93" target-y="324.28"></path><path d="M 26.14 599.23 L 246.68 595.67 C 250.96 595.60 254.44 599.40 254.44 604.14 L 254.44 737.61 C 254.44 742.36 250.96 746.21 246.68 746.22 L 26.14 746.62 C 22.04 746.62 18.71 742.87 18.71 738.23 L 18.71 607.75 C 18.71 603.11 22.00 599.30 26.14 599.23 Z" fill="#424785" fill-opacity="0.1" fill-rule="nonzero" group-id="1,2" node-id="174" stroke="none" target-height="151.02008" target-width="235.73001" target-x="18.71" target-y="595.6"></path><path d="M 22.07 597.09 L 242.60 593.54 C 246.88 593.47 250.36 597.26 250.36 602.01 L 250.36 735.47 C 250.36 740.22 246.88 744.07 242.60 744.08 L 22.07 744.48 C 17.96 744.48 14.64 740.73 14.64 736.09 L 14.64 605.62 C 14.64 601.00 18.00 597.16 22.07 597.09 Z" fill="#aeb7c4" fill-opacity="0.1" fill-rule="nonzero" group-id="1,2" node-id="176" stroke="none" target-height="151.00995" target-width="235.71999" target-x="14.64" target-y="593.47"></path><g node-id="396"><path d="M 240.49 733.16 L 240.49 604.49 L 24.09 607.76 L 24.09 733.78 L 240.49 733.16 Z" fill="#ffffff" fill-opacity="0.030000001" fill-rule="nonzero" group-id="1,2,20" node-id="180" stroke="none" target-height="129.29004" target-width="216.40001" target-x="24.09" target-y="604.49"></path></g><path d="M 232.91 735.17 C 231.81 735.17 230.91 734.27 230.91 733.17 C 230.91 732.07 231.81 731.17 232.91 731.17 L 238.61 731.17 L 238.61 725.17 C 238.56 724.46 238.91 723.78 239.52 723.41 C 240.12 723.04 240.89 723.04 241.49 723.41 C 242.10 723.78 242.45 724.46 242.40 725.17 L 242.40 733.12 C 242.42 733.64 242.23 734.14 241.87 734.51 C 241.52 734.89 241.03 735.11 240.51 735.12 L 232.92 735.12 Z" fill="#ffffff" fill-opacity="0.1" fill-rule="nonzero" group-id="1,2" node-id="183" stroke="none" target-height="12.130493" target-width="11.54158" target-x="230.91002" target-y="723.0395"></path><path d="M 240.49 711.09 C 239.97 711.08 239.48 710.86 239.13 710.48 C 238.77 710.11 238.58 709.61 238.60 709.09 L 238.60 693.00 C 238.55 692.29 238.90 691.61 239.51 691.24 C 240.11 690.87 240.88 690.87 241.48 691.24 C 242.09 691.61 242.44 692.29 242.39 693.00 L 242.39 709.10 C 242.39 710.16 241.55 711.04 240.49 711.09 Z M 240.49 678.87 C 239.97 678.86 239.48 678.64 239.13 678.26 C 238.77 677.89 238.58 677.39 238.60 676.87 L 238.60 660.77 C 238.55 660.06 238.90 659.38 239.51 659.01 C 240.11 658.64 240.88 658.64 241.48 659.01 C 242.09 659.38 242.44 660.06 242.39 660.77 L 242.39 676.88 C 242.39 677.94 241.55 678.82 240.49 678.87 Z M 240.49 646.65 C 239.97 646.64 239.48 646.42 239.13 646.04 C 238.77 645.67 238.58 645.17 238.60 644.65 L 238.60 628.55 C 238.55 627.84 238.90 627.16 239.51 626.79 C 240.11 626.42 240.88 626.42 241.48 626.79 C 242.09 627.16 242.44 627.84 242.39 628.55 L 242.39 644.66 C 242.39 645.72 241.55 646.60 240.49 646.65 Z" fill="#ffffff" fill-opacity="0.1" fill-rule="nonzero" group-id="1,2" node-id="185" stroke="none" target-height="84.67047" target-width="3.8932037" target-x="238.5484" target-y="626.41956"></path><path d="M 240.49 614.43 C 239.97 614.42 239.48 614.20 239.13 613.82 C 238.77 613.45 238.58 612.95 238.60 612.43 L 238.60 606.50 L 232.94 606.58 C 231.84 606.60 230.93 605.71 230.91 604.61 C 230.89 603.51 231.78 602.60 232.88 602.58 L 240.46 602.46 C 240.97 602.44 241.47 602.65 241.82 603.03 C 242.18 603.41 242.39 603.92 242.39 604.45 L 242.39 612.45 C 242.38 613.51 241.55 614.38 240.49 614.43 Z" fill="#ffffff" fill-opacity="0.1" fill-rule="nonzero" group-id="1,2" node-id="187" stroke="none" target-height="11.98822" target-width="11.496582" target-x="230.89342" target-y="602.4418"></path><path d="M 47.15 609.40 C 46.05 609.40 45.15 608.50 45.15 607.40 C 45.15 606.30 46.05 605.40 47.15 605.40 L 62.63 605.17 C 63.73 605.15 64.64 606.04 64.66 607.14 C 64.68 608.24 63.79 609.15 62.69 609.17 L 47.21 609.41 Z M 78.15 608.93 C 77.05 608.93 76.15 608.03 76.15 606.93 C 76.15 605.83 77.05 604.93 78.15 604.93 L 93.63 604.69 C 94.16 604.68 94.66 604.90 95.02 605.27 C 95.39 605.65 95.58 606.17 95.55 606.69 C 95.57 607.20 95.38 607.70 95.03 608.08 C 94.69 608.45 94.20 608.67 93.69 608.69 L 78.21 608.93 Z M 109.15 608.46 C 108.05 608.46 107.15 607.56 107.15 606.46 C 107.15 605.36 108.05 604.46 109.15 604.46 L 124.63 604.22 C 125.15 604.22 125.65 604.43 126.02 604.81 C 126.38 605.19 126.57 605.70 126.55 606.22 C 126.55 607.27 125.74 608.15 124.69 608.22 L 109.21 608.45 Z M 140.15 607.99 C 139.05 607.99 138.15 607.09 138.15 605.99 C 138.15 604.89 139.05 603.99 140.15 603.99 L 155.63 603.76 C 156.73 603.74 157.64 604.63 157.66 605.73 C 157.68 606.83 156.79 607.74 155.69 607.76 L 140.21 607.99 Z M 171.15 607.53 C 170.05 607.53 169.15 606.63 169.15 605.53 C 169.15 604.43 170.05 603.53 171.15 603.53 L 186.63 603.30 C 187.16 603.30 187.66 603.51 188.02 603.89 C 188.39 604.26 188.58 604.78 188.56 605.30 C 188.56 606.36 187.74 607.23 186.69 607.30 L 171.21 607.54 Z M 202.15 607.06 C 201.05 607.06 200.15 606.16 200.15 605.06 C 200.15 603.96 201.05 603.06 202.15 603.06 L 217.63 602.82 C 218.73 602.80 219.64 603.69 219.66 604.79 C 219.68 605.89 218.79 606.80 217.69 606.82 L 202.21 607.05 Z" fill="#ffffff" fill-opacity="0.1" fill-rule="nonzero" group-id="1,2" node-id="189" stroke="none" target-height="6.6065674" target-width="174.52658" target-x="45.15" target-y="602.8034"></path><path d="M 24.09 617.69 C 23.57 617.68 23.08 617.46 22.72 617.09 C 22.37 616.71 22.17 616.21 22.19 615.69 L 22.19 607.69 C 22.19 606.63 23.01 605.76 24.06 605.69 L 31.64 605.58 L 31.64 605.58 C 32.74 605.58 33.64 606.48 33.64 607.58 C 33.64 608.68 32.74 609.58 31.64 609.58 L 25.92 609.67 L 25.92 615.67 C 25.97 616.73 25.15 617.63 24.09 617.69 Z" fill="#ffffff" fill-opacity="0.1" fill-rule="nonzero" group-id="1,2" node-id="191" stroke="none" target-height="12.109985" target-width="11.466131" target-x="22.173868" target-y="605.58"></path><path d="M 24.09 712.09 C 23.02 712.04 22.19 711.16 22.19 710.09 L 22.19 694.37 C 22.14 693.66 22.49 692.98 23.10 692.61 C 23.70 692.24 24.47 692.24 25.07 692.61 C 25.68 692.98 26.03 693.66 25.98 694.37 L 25.98 710.10 C 25.99 710.61 25.80 711.11 25.45 711.49 C 25.09 711.86 24.60 712.08 24.09 712.09 Z M 24.09 680.62 C 23.57 680.61 23.08 680.39 22.72 680.02 C 22.37 679.64 22.17 679.14 22.19 678.62 L 22.19 662.90 C 22.14 662.19 22.49 661.51 23.10 661.14 C 23.70 660.77 24.47 660.77 25.07 661.14 C 25.68 661.51 26.03 662.19 25.98 662.90 L 25.98 678.64 C 26.00 679.71 25.16 680.59 24.09 680.62 Z M 24.09 649.16 C 23.02 649.11 22.19 648.23 22.19 647.16 L 22.19 631.44 C 22.14 630.73 22.49 630.05 23.10 629.68 C 23.70 629.31 24.47 629.31 25.07 629.68 C 25.68 630.05 26.03 630.73 25.98 631.44 L 25.98 647.17 C 25.99 647.68 25.80 648.18 25.45 648.56 C 25.09 648.93 24.60 649.15 24.09 649.16 Z" fill="#ffffff" fill-opacity="0.1" fill-rule="nonzero" group-id="1,2" node-id="193" stroke="none" target-height="82.78046" target-width="3.8932056" target-x="22.138395" target-y="629.3096"></path><path d="M 24.09 735.77 C 23.58 735.77 23.10 735.56 22.75 735.19 C 22.39 734.81 22.18 734.31 22.19 733.78 L 22.19 725.83 C 22.14 725.12 22.49 724.44 23.10 724.07 C 23.70 723.70 24.47 723.70 25.07 724.07 C 25.68 724.44 26.03 725.12 25.98 725.83 L 25.98 731.83 L 31.66 731.83 L 31.66 731.83 C 32.76 731.83 33.66 732.73 33.66 733.83 C 33.66 734.93 32.76 735.83 31.66 735.83 L 24.08 735.83 Z" fill="#ffffff" fill-opacity="0.1" fill-rule="nonzero" group-id="1,2" node-id="195" stroke="none" target-height="12.130493" target-width="11.521605" target-x="22.138395" target-y="723.6995"></path><path d="M 47.15 735.70 C 46.05 735.70 45.15 734.80 45.15 733.70 C 45.15 732.60 46.05 731.70 47.15 731.70 L 62.63 731.70 L 62.63 731.70 C 63.73 731.70 64.63 732.60 64.63 733.70 C 64.63 734.80 63.73 735.70 62.63 735.70 L 47.15 735.70 Z M 78.15 735.62 C 77.05 735.62 76.15 734.72 76.15 733.62 C 76.15 732.52 77.05 731.62 78.15 731.62 L 93.63 731.62 L 93.63 731.62 C 94.73 731.62 95.63 732.52 95.63 733.62 C 95.63 734.72 94.73 735.62 93.63 735.62 L 78.16 735.62 Z M 109.15 735.53 C 108.05 735.53 107.15 734.63 107.15 733.53 C 107.15 732.43 108.05 731.53 109.15 731.53 L 124.63 731.53 L 124.63 731.53 C 125.73 731.53 126.63 732.43 126.63 733.53 C 126.63 734.63 125.73 735.53 124.63 735.53 L 109.15 735.53 Z M 140.15 735.44 C 139.05 735.44 138.15 734.54 138.15 733.44 C 138.15 732.34 139.05 731.44 140.15 731.44 L 155.63 731.39 L 155.63 731.39 C 156.73 731.39 157.63 732.29 157.63 733.39 C 157.63 734.49 156.73 735.39 155.63 735.39 L 140.15 735.44 Z M 171.15 735.35 C 170.05 735.35 169.15 734.45 169.15 733.35 C 169.15 732.25 170.05 731.35 171.15 731.35 L 186.63 731.35 L 186.63 731.35 C 187.73 731.35 188.63 732.25 188.63 733.35 C 188.63 734.45 187.73 735.35 186.63 735.35 L 171.15 735.35 Z M 202.15 735.26 C 201.05 735.26 200.15 734.36 200.15 733.26 C 200.15 732.16 201.05 731.26 202.15 731.26 L 217.63 731.26 L 217.63 731.26 C 218.73 731.26 219.63 732.16 219.63 733.26 C 219.63 734.36 218.73 735.26 217.63 735.26 L 202.15 735.26 Z" fill="#ffffff" fill-opacity="0.1" fill-rule="nonzero" group-id="1,2" node-id="197" stroke="none" target-height="4.4400024" target-width="174.48001" target-x="45.15" target-y="731.26"></path><path d="M 145.75 803.61 L 366.29 800.05 C 370.57 799.98 374.05 803.78 374.05 808.52 L 374.05 942.00 C 374.05 946.74 370.57 950.60 366.29 950.61 L 145.75 951.01 C 141.65 951.01 138.33 947.26 138.33 942.62 L 138.33 812.13 C 138.33 807.49 141.65 803.68 145.75 803.61 Z" fill="#414683" fill-opacity="0.1" fill-rule="nonzero" group-id="1,2" node-id="199" stroke="none" target-height="151.02997" target-width="235.71999" target-x="138.33" target-y="799.98004"></path><path d="M 141.68 801.47 L 362.21 797.92 C 366.49 797.85 369.97 801.64 369.97 806.39 L 369.97 939.85 C 369.97 944.60 366.49 948.45 362.21 948.46 L 141.68 948.86 C 137.57 948.86 134.25 945.11 134.25 940.47 L 134.25 810.00 C 134.25 805.36 137.57 801.54 141.68 801.47 Z" fill="#d8dee8" fill-opacity="0.1" fill-rule="nonzero" group-id="1,2" node-id="201" stroke="none" target-height="151.00989" target-width="235.72" target-x="134.25" target-y="797.85004"></path><g node-id="397"><path d="M 360.10 937.54 L 360.10 808.87 L 143.70 812.14 L 143.70 938.16 L 360.10 937.54 Z" fill="#ffffff" fill-opacity="0.030000001" fill-rule="nonzero" group-id="1,2,21" node-id="205" stroke="none" target-height="129.28998" target-width="216.40001" target-x="143.7" target-y="808.87"></path></g><path d="M 352.52 939.55 C 351.42 939.55 350.52 938.65 350.52 937.55 C 350.52 936.45 351.42 935.55 352.52 935.55 L 358.21 935.55 L 358.21 929.55 C 358.16 928.84 358.51 928.16 359.12 927.79 C 359.72 927.42 360.49 927.42 361.09 927.79 C 361.70 928.16 362.05 928.84 362.00 929.55 L 362.00 937.50 C 362.02 938.02 361.83 938.52 361.47 938.89 C 361.12 939.27 360.63 939.49 360.11 939.50 L 352.53 939.50 Z" fill="#ffffff" fill-opacity="0.1" fill-rule="nonzero" group-id="1,2" node-id="208" stroke="none" target-height="12.130493" target-width="11.531647" target-x="350.52" target-y="927.4195"></path><path d="M 360.10 915.47 C 359.58 915.46 359.09 915.24 358.74 914.86 C 358.38 914.49 358.19 913.99 358.21 913.47 L 358.21 897.37 C 358.16 896.66 358.51 895.98 359.12 895.61 C 359.72 895.24 360.49 895.24 361.09 895.61 C 361.70 895.98 362.05 896.66 362.00 897.37 L 362.00 913.48 C 362.00 914.54 361.16 915.42 360.10 915.47 Z M 360.10 883.25 C 359.58 883.24 359.09 883.02 358.74 882.64 C 358.38 882.27 358.19 881.77 358.21 881.25 L 358.21 865.15 C 358.16 864.44 358.51 863.76 359.12 863.39 C 359.72 863.02 360.49 863.02 361.09 863.39 C 361.70 863.76 362.05 864.44 362.00 865.15 L 362.00 881.26 C 362.00 882.32 361.16 883.20 360.10 883.25 Z M 360.10 851.03 C 359.58 851.02 359.09 850.80 358.74 850.42 C 358.38 850.05 358.19 849.55 358.21 849.03 L 358.21 832.93 C 358.16 832.22 358.51 831.54 359.12 831.17 C 359.72 830.80 360.49 830.80 361.09 831.17 C 361.70 831.54 362.05 832.22 362.00 832.93 L 362.00 849.00 C 362.00 850.07 361.17 850.95 360.10 851.00 Z" fill="#ffffff" fill-opacity="0.1" fill-rule="nonzero" group-id="1,2" node-id="210" stroke="none" target-height="84.67047" target-width="3.8932495" target-x="358.1584" target-y="830.79956"></path><path d="M 360.10 818.81 C 359.58 818.80 359.09 818.58 358.74 818.20 C 358.38 817.83 358.19 817.33 358.21 816.81 L 358.21 810.88 L 352.55 810.96 C 351.45 810.98 350.54 810.09 350.52 808.99 C 350.50 807.89 351.39 806.98 352.49 806.96 L 360.08 806.84 C 360.59 806.83 361.08 807.03 361.43 807.41 C 361.79 807.79 362.00 808.30 362.00 808.83 L 362.00 816.83 C 361.99 817.89 361.16 818.76 360.10 818.81 Z" fill="#ffffff" fill-opacity="0.1" fill-rule="nonzero" group-id="1,2" node-id="212" stroke="none" target-height="11.983948" target-width="11.496582" target-x="350.50342" target-y="806.82605"></path><path d="M 166.76 813.77 C 165.66 813.77 164.76 812.87 164.76 811.77 C 164.76 810.67 165.66 809.77 166.76 809.77 L 182.24 809.54 C 183.34 809.52 184.25 810.41 184.27 811.51 C 184.29 812.61 183.40 813.52 182.30 813.54 L 166.82 813.77 Z M 197.76 813.31 C 196.66 813.31 195.76 812.41 195.76 811.31 C 195.76 810.21 196.66 809.31 197.76 809.31 L 213.24 809.08 C 214.32 809.12 215.17 810.00 215.17 811.08 C 215.17 812.14 214.35 813.01 213.30 813.08 L 197.82 813.32 Z M 228.76 812.84 C 227.66 812.84 226.76 811.94 226.76 810.84 C 226.76 809.74 227.66 808.84 228.76 808.84 L 244.24 808.60 C 244.76 808.60 245.26 808.82 245.63 809.19 C 245.99 809.57 246.19 810.08 246.17 810.60 C 246.17 811.66 245.35 812.53 244.30 812.60 L 228.82 812.83 Z M 259.76 812.37 C 258.66 812.37 257.76 811.47 257.76 810.37 C 257.76 809.27 258.66 808.37 259.76 808.37 L 275.24 808.14 C 276.34 808.12 277.25 809.01 277.27 810.11 C 277.29 811.21 276.40 812.12 275.30 812.14 L 259.82 812.37 Z M 290.76 811.90 C 289.66 811.90 288.76 811.00 288.76 809.90 C 288.76 808.80 289.66 807.90 290.76 807.90 L 306.24 807.67 C 306.76 807.67 307.25 807.87 307.61 808.24 C 307.98 808.61 308.18 809.10 308.17 809.62 C 308.17 810.68 307.35 811.55 306.30 811.62 L 290.82 811.85 Z M 321.76 811.44 C 320.66 811.44 319.76 810.54 319.76 809.44 C 319.76 808.34 320.66 807.44 321.76 807.44 L 337.24 807.21 C 338.34 807.19 339.25 808.08 339.27 809.18 C 339.29 810.28 338.40 811.19 337.30 811.21 L 321.82 811.45 Z" fill="#ffffff" fill-opacity="0.1" fill-rule="nonzero" group-id="1,2" node-id="214" stroke="none" target-height="6.576599" target-width="174.52657" target-x="164.76" target-y="807.1934"></path><path d="M 143.70 822.07 C 143.18 822.06 142.69 821.84 142.33 821.47 C 141.98 821.09 141.78 820.59 141.80 820.07 L 141.80 812.07 C 141.77 811.00 142.60 810.11 143.67 810.07 L 151.25 809.96 C 151.77 809.96 152.28 810.17 152.64 810.55 C 153.00 810.93 153.20 811.44 153.18 811.96 C 153.18 813.02 152.36 813.89 151.31 813.96 L 145.59 814.05 L 145.59 820.05 C 145.61 820.57 145.42 821.08 145.07 821.46 C 144.71 821.84 144.22 822.06 143.70 822.07 Z" fill="#ffffff" fill-opacity="0.1" fill-rule="nonzero" group-id="1,2" node-id="216" stroke="none" target-height="12.110352" target-width="11.432739" target-x="141.76628" target-y="809.95966"></path><path d="M 143.70 916.47 C 142.63 916.42 141.80 915.54 141.80 914.47 L 141.80 898.75 C 141.75 898.04 142.10 897.36 142.71 896.99 C 143.31 896.62 144.08 896.62 144.68 896.99 C 145.29 897.36 145.64 898.04 145.59 898.75 L 145.59 914.48 C 145.60 914.99 145.41 915.49 145.06 915.87 C 144.70 916.24 144.21 916.46 143.70 916.47 Z M 143.70 885.00 C 143.18 884.99 142.69 884.77 142.33 884.40 C 141.98 884.02 141.78 883.52 141.80 883.00 L 141.80 867.28 C 141.75 866.57 142.10 865.89 142.71 865.52 C 143.31 865.15 144.08 865.15 144.68 865.52 C 145.29 865.89 145.64 866.57 145.59 867.28 L 145.59 883.00 C 145.61 883.52 145.42 884.02 145.06 884.39 C 144.71 884.77 144.22 884.99 143.70 885.00 Z M 143.70 853.54 C 142.63 853.49 141.80 852.61 141.80 851.54 L 141.80 835.82 C 141.75 835.11 142.10 834.43 142.71 834.06 C 143.31 833.69 144.08 833.69 144.68 834.06 C 145.29 834.43 145.64 835.11 145.59 835.82 L 145.59 851.55 C 145.60 852.06 145.41 852.56 145.06 852.94 C 144.70 853.31 144.21 853.53 143.70 853.54 Z" fill="#ffffff" fill-opacity="0.1" fill-rule="nonzero" group-id="1,2" node-id="218" stroke="none" target-height="82.78046" target-width="3.8932037" target-x="141.7484" target-y="833.6896"></path><path d="M 143.70 940.15 C 143.19 940.15 142.71 939.94 142.36 939.57 C 142.00 939.19 141.79 938.69 141.80 938.16 L 141.80 930.22 C 141.75 929.51 142.10 928.83 142.71 928.46 C 143.31 928.09 144.08 928.09 144.68 928.46 C 145.29 928.83 145.64 929.51 145.59 930.22 L 145.59 936.17 L 151.28 936.17 L 151.28 936.17 C 152.38 936.17 153.28 937.07 153.28 938.17 C 153.28 939.27 152.38 940.17 151.28 940.17 L 143.69 940.17 Z" fill="#ffffff" fill-opacity="0.1" fill-rule="nonzero" group-id="1,2" node-id="220" stroke="none" target-height="12.080383" target-width="11.531601" target-x="141.7484" target-y="928.0896"></path><path d="M 166.76 940.08 C 165.66 940.08 164.76 939.18 164.76 938.08 C 164.76 936.98 165.66 936.08 166.76 936.08 L 182.24 936.08 L 182.24 936.08 C 183.34 936.08 184.24 936.98 184.24 938.08 C 184.24 939.18 183.34 940.08 182.24 940.08 L 166.76 940.08 Z M 197.76 939.99 C 196.66 939.99 195.76 939.09 195.76 937.99 C 195.76 936.89 196.66 935.99 197.76 935.99 L 213.23 935.99 L 213.23 935.99 C 214.33 935.99 215.23 936.89 215.23 937.99 C 215.23 939.09 214.33 939.99 213.23 939.99 L 197.75 939.99 Z M 228.76 939.91 C 227.66 939.91 226.76 939.01 226.76 937.91 C 226.76 936.81 227.66 935.91 228.76 935.91 L 244.24 935.91 L 244.24 935.91 C 245.34 935.91 246.24 936.81 246.24 937.91 C 246.24 939.01 245.34 939.91 244.24 939.91 L 228.76 939.91 Z M 259.76 939.82 C 258.66 939.82 257.76 938.92 257.76 937.82 C 257.76 936.72 258.66 935.82 259.76 935.82 L 275.25 935.82 L 275.25 935.82 C 276.35 935.82 277.25 936.72 277.25 937.82 C 277.25 938.92 276.35 939.82 275.25 939.82 L 259.77 939.87 Z M 290.76 939.73 C 289.66 939.73 288.76 938.83 288.76 937.73 C 288.76 936.63 289.66 935.73 290.76 935.73 L 306.24 935.73 L 306.24 935.73 C 307.34 935.73 308.24 936.63 308.24 937.73 C 308.24 938.83 307.34 939.73 306.24 939.73 L 290.76 939.73 Z M 321.76 939.64 C 320.66 939.64 319.76 938.74 319.76 937.64 C 319.76 936.54 320.66 935.64 321.76 935.64 L 337.24 935.64 L 337.24 935.64 C 338.34 935.64 339.24 936.54 339.24 937.64 C 339.24 938.74 338.34 939.64 337.24 939.64 L 321.76 939.64 Z" fill="#ffffff" fill-opacity="0.1" fill-rule="nonzero" group-id="1,2" node-id="222" stroke="none" target-height="4.4400024" target-width="174.48" target-x="164.76" target-y="935.64"></path></g><path d="M 517.49 902.69 C 517.08 902.69 516.75 902.36 516.75 901.95 C 516.75 901.54 517.08 901.21 517.49 901.21 C 520.43 901.21 523.42 901.21 526.36 901.10 L 526.36 901.10 C 526.77 901.10 527.10 901.43 527.10 901.84 C 527.10 902.25 526.77 902.58 526.36 902.58 C 523.41 902.65 520.41 902.69 517.46 902.69 Z M 508.60 902.58 L 508.60 902.58 C 505.60 902.51 502.60 902.40 499.70 902.26 C 499.30 902.24 498.98 901.89 499.00 901.49 C 499.00 901.29 499.09 901.11 499.24 900.98 C 499.38 900.84 499.57 900.78 499.77 900.79 C 502.70 900.93 505.69 901.04 508.64 901.11 C 508.83 901.12 509.02 901.20 509.15 901.34 C 509.28 901.48 509.36 901.67 509.35 901.86 C 509.35 902.05 509.27 902.24 509.14 902.37 C 509.00 902.51 508.81 902.58 508.62 902.58 Z M 535.26 902.25 C 534.85 902.25 534.52 901.92 534.52 901.51 C 534.52 901.10 534.85 900.77 535.26 900.77 C 538.20 900.63 541.18 900.44 544.12 900.23 C 544.32 900.21 544.51 900.28 544.66 900.40 C 544.81 900.53 544.90 900.71 544.91 900.91 C 544.93 901.32 544.63 901.67 544.22 901.70 C 541.28 901.92 538.28 902.10 535.33 902.25 Z M 490.84 901.72 L 490.84 901.72 C 487.90 901.50 484.91 901.24 481.97 900.95 C 481.69 900.94 481.44 900.78 481.32 900.53 C 481.20 900.28 481.23 899.99 481.40 899.77 C 481.56 899.55 481.84 899.44 482.11 899.48 C 485.05 899.77 488.02 900.03 490.95 900.24 C 491.36 900.26 491.68 900.60 491.66 901.01 C 491.64 901.42 491.30 901.74 490.89 901.72 Z M 552.98 900.93 C 552.60 900.91 552.30 900.60 552.28 900.23 C 552.27 899.85 552.54 899.52 552.91 899.46 C 555.84 899.17 558.80 898.84 561.73 898.46 C 562.14 898.41 562.51 898.70 562.55 899.11 C 562.60 899.51 562.32 899.88 561.91 899.93 C 558.97 900.29 556.00 900.63 553.06 900.93 Z M 473.15 900.00 L 473.06 900.00 C 470.13 899.64 467.16 899.23 464.24 898.80 C 463.96 898.78 463.72 898.61 463.61 898.36 C 463.50 898.10 463.54 897.80 463.72 897.59 C 463.89 897.37 464.18 897.28 464.45 897.34 C 467.37 897.77 470.32 898.17 473.24 898.54 C 473.43 898.56 473.61 898.66 473.73 898.82 C 473.85 898.97 473.91 899.17 473.88 899.36 C 473.83 899.73 473.52 900.01 473.15 900.01 Z M 570.62 898.76 C 570.24 898.75 569.93 898.45 569.90 898.07 C 569.88 897.69 570.14 897.35 570.52 897.29 C 573.43 896.85 576.38 896.37 579.27 895.87 C 579.46 895.83 579.66 895.87 579.82 895.98 C 579.98 896.10 580.09 896.27 580.12 896.46 C 580.16 896.65 580.12 896.85 580.01 897.01 C 579.89 897.18 579.72 897.29 579.53 897.32 C 576.62 897.83 573.66 898.32 570.73 898.75 Z M 455.62 897.38 L 455.49 897.38 C 452.58 896.88 449.64 896.32 446.74 895.74 C 446.47 895.70 446.25 895.51 446.16 895.26 C 446.07 895.00 446.12 894.71 446.31 894.51 C 446.49 894.31 446.77 894.23 447.03 894.29 C 449.92 894.87 452.85 895.42 455.75 895.93 C 456.15 896.00 456.42 896.38 456.35 896.78 C 456.28 897.13 455.98 897.39 455.62 897.40 Z M 588.18 895.68 C 587.81 895.67 587.51 895.38 587.47 895.01 C 587.44 894.64 587.68 894.30 588.04 894.22 C 590.93 893.64 593.85 893.01 596.71 892.36 C 597.10 892.30 597.47 892.54 597.55 892.92 C 597.64 893.31 597.42 893.69 597.04 893.80 C 594.17 894.46 591.24 895.08 588.33 895.67 L 588.18 895.67 Z M 438.18 893.88 L 438.02 893.88 C 435.14 893.23 432.22 892.53 429.36 891.80 C 429.08 891.76 428.86 891.56 428.77 891.29 C 428.69 891.03 428.76 890.73 428.96 890.54 C 429.16 890.34 429.46 890.28 429.72 890.37 C 432.58 891.09 435.48 891.79 438.34 892.44 C 438.70 892.53 438.95 892.87 438.91 893.24 C 438.86 893.61 438.55 893.89 438.18 893.90 Z M 605.50 891.74 C 605.16 891.74 604.87 891.51 604.79 891.18 C 604.74 890.99 604.77 890.79 604.87 890.62 C 604.97 890.46 605.13 890.34 605.32 890.29 C 608.17 889.56 611.05 888.79 613.89 887.99 C 614.27 887.92 614.64 888.14 614.75 888.52 C 614.85 888.89 614.65 889.28 614.29 889.41 C 611.44 890.21 608.55 890.99 605.69 891.72 L 605.50 891.72 Z M 420.95 889.51 C 420.88 889.52 420.82 889.52 420.75 889.51 C 417.90 888.72 415.03 887.87 412.20 887.00 C 411.93 886.93 411.72 886.73 411.66 886.46 C 411.59 886.19 411.68 885.91 411.89 885.73 C 412.09 885.54 412.38 885.49 412.64 885.59 C 415.45 886.46 418.31 887.30 421.15 888.09 C 421.50 888.19 421.72 888.54 421.67 888.90 C 421.62 889.26 421.32 889.54 420.95 889.54 Z M 622.62 886.93 C 622.26 886.92 621.96 886.66 621.91 886.30 C 621.85 885.95 622.06 885.61 622.40 885.49 C 625.22 884.62 628.06 883.70 630.84 882.77 C 631.22 882.64 631.64 882.85 631.77 883.23 C 631.90 883.61 631.69 884.03 631.31 884.16 C 628.52 885.10 625.67 886.02 622.84 886.90 L 622.62 886.90 Z M 403.93 884.28 C 403.85 884.29 403.77 884.29 403.69 884.28 C 400.88 883.28 398.04 882.34 395.25 881.28 C 394.87 881.14 394.67 880.71 394.81 880.33 C 394.95 879.95 395.38 879.75 395.76 879.89 C 398.53 880.89 401.36 881.89 404.16 882.83 C 404.55 882.96 404.76 883.37 404.63 883.76 C 404.53 884.06 404.25 884.27 403.93 884.27 Z M 639.47 881.28 C 639.11 881.29 638.79 881.02 638.73 880.67 C 638.67 880.31 638.88 879.96 639.22 879.84 C 641.98 878.84 644.77 877.78 647.51 876.70 C 647.89 876.55 648.32 876.74 648.47 877.12 C 648.62 877.50 648.43 877.93 648.05 878.08 C 645.30 879.16 642.50 880.22 639.72 881.23 C 639.64 881.24 639.55 881.24 639.47 881.23 Z M 387.17 878.19 C 387.08 878.20 386.99 878.20 386.90 878.19 C 384.14 877.11 381.36 875.97 378.62 874.82 C 378.37 874.72 378.18 874.50 378.15 874.23 C 378.11 873.96 378.22 873.69 378.44 873.53 C 378.66 873.37 378.95 873.34 379.20 873.46 C 381.92 874.61 384.69 875.74 387.44 876.81 C 387.77 876.94 387.97 877.29 387.90 877.64 C 387.83 877.99 387.53 878.24 387.17 878.24 Z M 655.98 874.78 C 655.63 874.79 655.32 874.54 655.25 874.19 C 655.18 873.85 655.37 873.50 655.70 873.37 C 658.41 872.22 661.13 871.03 663.80 869.83 C 664.17 869.66 664.60 869.83 664.77 870.20 C 664.94 870.57 664.77 871.00 664.40 871.17 C 661.73 872.38 658.99 873.58 656.27 874.73 C 656.17 874.75 656.08 874.75 655.98 874.73 Z M 370.70 871.23 C 370.60 871.23 370.49 871.21 370.40 871.16 C 367.70 869.94 364.98 868.67 362.31 867.39 C 361.94 867.21 361.78 866.76 361.96 866.39 C 362.05 866.21 362.20 866.07 362.39 866.01 C 362.58 865.95 362.78 865.96 362.96 866.05 C 365.62 867.33 368.33 868.60 371.02 869.81 C 371.33 869.96 371.50 870.30 371.43 870.64 C 371.35 870.98 371.06 871.22 370.71 871.22 Z M 672.09 867.46 C 671.74 867.46 671.44 867.22 671.36 866.88 C 671.29 866.54 671.46 866.20 671.77 866.05 C 674.42 864.78 677.08 863.45 679.69 862.11 C 679.86 862.02 680.07 862.00 680.26 862.06 C 680.45 862.12 680.60 862.25 680.69 862.43 C 680.79 862.60 680.81 862.81 680.75 863.00 C 680.69 863.19 680.55 863.34 680.37 863.43 C 677.75 864.78 675.08 866.11 672.37 867.43 C 672.27 867.48 672.16 867.51 672.05 867.51 Z M 354.65 863.46 C 354.54 863.46 354.42 863.43 354.32 863.38 C 351.68 862.02 349.03 860.62 346.43 859.20 C 346.26 859.11 346.13 858.95 346.08 858.76 C 346.02 858.57 346.04 858.37 346.14 858.20 C 346.33 857.84 346.78 857.71 347.14 857.90 C 349.72 859.32 352.37 860.72 354.99 862.06 C 355.30 862.22 355.46 862.56 355.37 862.89 C 355.29 863.23 354.99 863.46 354.65 863.46 Z M 687.86 859.33 C 687.52 859.33 687.23 859.10 687.15 858.77 C 687.06 858.44 687.21 858.10 687.51 857.94 C 690.09 856.53 692.68 855.07 695.22 853.60 C 695.57 853.40 696.02 853.52 696.22 853.87 C 696.32 854.04 696.34 854.24 696.29 854.43 C 696.24 854.61 696.12 854.77 695.95 854.87 C 693.40 856.35 690.80 857.81 688.20 859.22 C 688.09 859.28 687.97 859.31 687.85 859.31 Z M 339.00 855.00 C 338.87 855.00 338.74 854.97 338.63 854.90 C 336.07 853.42 333.49 851.90 330.97 850.33 C 330.63 850.12 330.51 849.68 330.72 849.33 C 330.93 848.99 331.37 848.88 331.72 849.08 C 334.23 850.62 336.80 852.15 339.35 853.63 C 339.69 853.84 339.81 854.28 339.62 854.63 C 339.49 854.86 339.24 855.00 338.98 855.00 Z M 703.20 850.52 C 702.94 850.52 702.70 850.38 702.57 850.16 C 702.47 850.00 702.43 849.80 702.48 849.61 C 702.53 849.42 702.64 849.26 702.81 849.16 C 705.32 847.63 707.81 846.04 710.31 844.44 C 710.65 844.26 711.07 844.36 711.28 844.69 C 711.49 845.01 711.42 845.45 711.11 845.68 C 708.63 847.29 706.11 848.88 703.58 850.42 C 703.47 850.49 703.33 850.53 703.20 850.53 Z M 323.82 845.70 C 323.68 845.70 323.54 845.66 323.42 845.58 C 320.94 843.97 318.42 842.31 315.99 840.64 C 315.65 840.41 315.57 839.95 315.80 839.61 C 316.03 839.27 316.49 839.19 316.83 839.42 C 319.26 841.09 321.75 842.74 324.22 844.34 C 324.49 844.52 324.62 844.86 324.53 845.17 C 324.43 845.48 324.15 845.70 323.82 845.70 Z M 718.10 840.88 C 717.86 840.88 717.63 840.76 717.49 840.56 C 717.28 840.23 717.37 839.79 717.68 839.56 C 720.11 837.90 722.55 836.19 724.94 834.48 C 725.26 834.26 725.71 834.33 725.94 834.65 C 726.15 834.98 726.08 835.41 725.77 835.65 C 723.38 837.37 720.92 839.09 718.48 840.75 C 718.36 840.84 718.22 840.88 718.07 840.88 Z M 309.10 835.66 C 308.95 835.66 308.80 835.61 308.67 835.52 C 306.27 833.79 303.86 832.00 301.51 830.22 C 301.28 830.07 301.16 829.80 301.19 829.53 C 301.22 829.26 301.39 829.02 301.65 828.92 C 301.90 828.82 302.19 828.86 302.40 829.04 C 304.74 830.82 307.14 832.59 309.54 834.32 C 309.80 834.51 309.91 834.84 309.81 835.15 C 309.71 835.45 309.43 835.66 309.11 835.66 Z M 732.49 830.51 C 732.17 830.51 731.89 830.31 731.79 830.01 C 731.68 829.71 731.79 829.37 732.04 829.18 C 734.39 827.41 736.74 825.58 739.04 823.74 C 739.36 823.49 739.83 823.54 740.08 823.86 C 740.33 824.18 740.28 824.65 739.96 824.90 C 737.65 826.74 735.29 828.57 732.96 830.36 C 732.83 830.46 732.68 830.51 732.52 830.51 Z M 295.00 824.86 C 294.83 824.86 294.67 824.80 294.54 824.70 C 292.24 822.86 289.92 820.96 287.65 819.05 C 287.37 818.78 287.35 818.34 287.60 818.04 C 287.85 817.75 288.29 817.69 288.60 817.92 C 290.86 819.82 293.17 821.71 295.47 823.55 C 295.77 823.80 295.82 824.24 295.58 824.55 C 295.45 824.74 295.23 824.86 295.00 824.86 Z M 746.44 819.39 C 746.13 819.38 745.86 819.19 745.76 818.90 C 745.65 818.61 745.74 818.29 745.97 818.09 C 748.21 816.21 750.47 814.26 752.69 812.31 C 753.00 812.03 753.47 812.06 753.75 812.37 C 754.02 812.67 754.00 813.14 753.69 813.42 C 751.47 815.42 749.20 817.33 746.95 819.22 C 746.82 819.33 746.65 819.39 746.47 819.39 Z M 281.44 813.39 C 281.26 813.39 281.09 813.33 280.95 813.21 C 278.73 811.21 276.51 809.21 274.35 807.21 C 274.09 806.93 274.09 806.49 274.35 806.21 C 274.63 805.95 275.07 805.95 275.35 806.21 C 277.51 808.21 279.72 810.21 281.93 812.21 C 282.21 812.48 282.23 812.91 281.99 813.21 C 281.85 813.37 281.65 813.46 281.44 813.46 Z M 759.81 807.61 C 759.51 807.61 759.24 807.42 759.13 807.14 C 759.02 806.86 759.09 806.54 759.31 806.33 C 761.48 804.33 763.64 802.27 765.74 800.22 C 766.04 800.02 766.44 800.07 766.68 800.33 C 766.93 800.59 766.95 800.99 766.74 801.28 C 764.63 803.33 762.46 805.40 760.29 807.41 C 760.15 807.54 759.97 807.61 759.78 807.61 Z M 268.41 801.29 C 268.22 801.29 268.03 801.22 267.90 801.08 C 265.78 799.02 263.66 796.90 261.60 794.78 C 261.34 794.50 261.34 794.06 261.60 793.78 C 261.89 793.49 262.36 793.49 262.65 793.78 C 264.70 795.89 266.81 798.00 268.92 800.06 C 269.13 800.27 269.19 800.59 269.08 800.86 C 268.96 801.14 268.70 801.32 268.40 801.32 Z M 772.54 795.21 C 772.34 795.22 772.14 795.14 772.00 795.00 C 771.74 794.72 771.74 794.28 772.00 794.00 C 774.06 791.89 776.12 789.73 778.12 787.58 C 778.40 787.32 778.84 787.32 779.12 787.58 C 779.38 787.86 779.38 788.30 779.12 788.58 C 777.12 790.74 775.04 792.91 772.97 795.03 C 772.83 795.18 772.64 795.26 772.44 795.26 Z M 255.92 788.60 C 255.71 788.60 255.52 788.51 255.38 788.36 C 253.38 786.20 251.38 783.98 249.38 781.76 C 249.10 781.46 249.13 780.99 249.43 780.71 C 249.73 780.43 250.20 780.46 250.48 780.76 C 252.48 782.97 254.48 785.18 256.43 787.34 C 256.69 787.62 256.69 788.06 256.43 788.34 C 256.29 788.47 256.11 788.54 255.92 788.54 Z M 784.57 782.21 C 784.39 782.21 784.22 782.15 784.08 782.03 C 783.80 781.77 783.76 781.33 784.01 781.03 C 786.01 778.82 787.92 776.56 789.81 774.31 C 790.06 774.01 790.51 773.97 790.81 774.22 C 791.10 774.48 791.14 774.91 790.90 775.22 C 789.00 777.48 787.04 779.75 785.08 781.96 C 784.94 782.12 784.74 782.21 784.53 782.21 Z M 244.17 775.28 C 243.95 775.28 243.74 775.18 243.60 775.02 C 241.70 772.75 239.80 770.44 237.96 768.13 C 237.71 767.81 237.76 767.34 238.08 767.09 C 238.40 766.84 238.87 766.89 239.12 767.21 C 240.95 769.51 242.84 771.81 244.73 774.07 C 244.97 774.38 244.93 774.81 244.64 775.07 C 244.50 775.18 244.33 775.24 244.16 775.24 Z M 796.00 768.60 C 795.71 768.60 795.45 768.44 795.33 768.18 C 795.21 767.92 795.25 767.62 795.43 767.40 C 797.27 765.10 799.10 762.74 800.88 760.40 C 801.13 760.10 801.56 760.04 801.88 760.26 C 802.19 760.50 802.25 760.94 802.02 761.26 C 800.23 763.62 798.39 765.98 796.54 768.26 C 796.40 768.44 796.19 768.54 795.96 768.54 Z M 233.08 761.40 C 232.85 761.40 232.63 761.30 232.49 761.11 C 230.70 758.75 228.92 756.34 227.20 753.95 C 226.98 753.63 227.05 753.18 227.37 752.95 C 227.70 752.73 228.13 752.81 228.37 753.12 C 230.08 755.50 231.85 757.90 233.63 760.24 C 233.80 760.46 233.83 760.76 233.71 761.01 C 233.58 761.27 233.33 761.43 233.05 761.43 Z M 806.76 754.40 C 806.61 754.40 806.45 754.35 806.33 754.26 C 806.02 754.02 805.94 753.59 806.16 753.26 C 807.88 750.88 809.60 748.44 811.27 746.00 C 811.41 745.76 811.67 745.62 811.95 745.63 C 812.23 745.64 812.47 745.81 812.59 746.06 C 812.70 746.32 812.66 746.61 812.49 746.83 C 810.81 749.28 809.09 751.73 807.36 754.13 C 807.22 754.32 807.00 754.43 806.76 754.43 Z M 222.71 747.00 C 222.47 747.00 222.24 746.88 222.10 746.68 C 220.44 744.25 218.78 741.75 217.18 739.27 C 216.97 738.94 217.06 738.49 217.39 738.27 C 217.73 738.07 218.17 738.17 218.39 738.49 C 219.98 740.96 221.63 743.44 223.29 745.87 C 223.44 746.10 223.46 746.39 223.33 746.63 C 223.20 746.87 222.95 747.02 222.68 747.02 Z M 816.82 739.75 C 816.68 739.75 816.54 739.72 816.42 739.64 C 816.09 739.42 815.99 738.98 816.20 738.64 C 817.80 736.16 819.40 733.64 820.94 731.12 C 821.15 730.77 821.60 730.67 821.95 730.88 C 822.30 731.09 822.40 731.54 822.19 731.89 C 820.65 734.42 819.05 736.96 817.44 739.44 C 817.30 739.65 817.07 739.78 816.82 739.78 Z M 213.07 732.10 C 212.81 732.10 212.57 731.97 212.44 731.75 C 210.89 729.23 209.36 726.66 207.89 724.11 C 207.71 723.76 207.83 723.33 208.18 723.13 C 208.52 722.93 208.96 723.04 209.17 723.37 C 210.64 725.91 212.17 728.47 213.70 730.98 C 213.91 731.33 213.79 731.77 213.45 731.98 C 213.34 732.05 213.20 732.09 213.07 732.09 Z M 826.12 724.58 C 825.99 724.58 825.86 724.55 825.75 724.48 C 825.41 724.27 825.29 723.83 825.48 723.48 C 826.96 720.94 828.42 718.33 829.84 715.73 C 830.04 715.37 830.49 715.24 830.85 715.43 C 831.20 715.63 831.34 716.08 831.14 716.44 C 829.71 719.05 828.24 721.67 826.76 724.22 C 826.63 724.45 826.38 724.59 826.12 724.59 Z M 204.18 716.75 C 203.91 716.75 203.66 716.60 203.53 716.37 C 202.12 713.78 200.72 711.14 199.37 708.52 C 199.18 708.16 199.33 707.71 199.69 707.52 C 200.05 707.33 200.50 707.48 200.69 707.84 C 202.03 710.46 203.43 713.09 204.83 715.66 C 205.02 716.02 204.89 716.46 204.54 716.66 C 204.43 716.72 204.31 716.75 204.18 716.75 Z M 834.66 708.95 C 834.54 708.95 834.42 708.92 834.32 708.86 C 834.14 708.77 834.01 708.61 833.95 708.43 C 833.89 708.24 833.91 708.03 834.00 707.86 C 835.36 705.23 836.69 702.56 838.00 699.86 C 838.18 699.49 838.62 699.34 838.99 699.52 C 839.36 699.70 839.51 700.14 839.33 700.51 C 838.04 703.17 836.70 705.86 835.33 708.51 C 835.20 708.75 834.95 708.91 834.67 708.91 Z M 196.08 700.95 C 195.80 700.95 195.54 700.79 195.41 700.54 C 194.13 697.89 192.87 695.18 191.65 692.54 C 191.56 692.36 191.55 692.15 191.62 691.96 C 191.69 691.77 191.84 691.62 192.02 691.54 C 192.20 691.46 192.41 691.45 192.60 691.52 C 192.79 691.59 192.94 691.73 193.02 691.91 C 194.23 694.59 195.49 697.29 196.76 699.91 C 196.85 700.09 196.86 700.29 196.80 700.48 C 196.74 700.67 196.60 700.82 196.42 700.91 C 196.32 700.97 196.20 701.00 196.08 701.00 Z M 842.41 692.87 C 842.31 692.87 842.20 692.85 842.11 692.81 C 841.92 692.73 841.78 692.58 841.71 692.39 C 841.64 692.20 841.65 691.99 841.74 691.81 C 842.95 689.12 844.15 686.38 845.30 683.66 C 845.40 683.40 845.62 683.22 845.89 683.19 C 846.16 683.15 846.43 683.26 846.59 683.48 C 846.75 683.70 846.78 683.99 846.66 684.24 C 845.51 686.96 844.30 689.72 843.08 692.42 C 842.96 692.68 842.70 692.85 842.41 692.85 Z M 188.77 684.81 C 188.47 684.81 188.21 684.63 188.09 684.36 C 186.95 681.65 185.82 678.89 184.74 676.14 C 184.66 675.95 184.65 675.74 184.73 675.55 C 184.81 675.36 184.97 675.21 185.16 675.14 C 185.35 675.05 185.56 675.05 185.75 675.13 C 185.94 675.21 186.09 675.36 186.16 675.56 C 187.24 678.29 188.36 681.05 189.50 683.74 C 189.59 683.92 189.60 684.14 189.52 684.33 C 189.45 684.52 189.30 684.67 189.11 684.74 C 189.01 684.80 188.89 684.83 188.77 684.83 Z M 849.34 676.45 C 849.25 676.45 849.16 676.43 849.07 676.40 C 848.88 676.33 848.73 676.18 848.65 675.99 C 848.57 675.80 848.57 675.59 848.66 675.40 C 849.74 672.65 850.80 669.85 851.81 667.08 C 851.88 666.80 852.10 666.59 852.38 666.54 C 852.65 666.48 852.94 666.58 853.11 666.81 C 853.29 667.03 853.32 667.34 853.19 667.59 C 852.19 670.37 851.12 673.18 850.03 675.94 C 849.92 676.22 849.64 676.41 849.34 676.41 Z M 182.28 668.29 C 181.97 668.30 181.69 668.10 181.58 667.81 C 180.58 665.03 179.58 662.20 178.64 659.40 C 178.49 659.14 178.51 658.81 178.70 658.57 C 178.89 658.34 179.21 658.24 179.50 658.34 C 179.79 658.43 179.99 658.70 180.00 659.00 C 180.94 661.79 181.93 664.60 182.94 667.37 C 183.01 667.55 183.00 667.76 182.92 667.94 C 182.83 668.11 182.68 668.25 182.50 668.32 C 182.42 668.33 182.33 668.33 182.25 668.32 Z M 855.45 659.69 C 855.37 659.70 855.29 659.70 855.21 659.69 C 855.03 659.63 854.87 659.50 854.79 659.32 C 854.70 659.15 854.69 658.94 854.75 658.76 C 855.68 655.97 856.60 653.11 857.47 650.28 C 857.61 649.92 858.01 649.72 858.38 649.84 C 858.75 649.95 858.97 650.34 858.88 650.72 C 858.01 653.56 857.09 656.42 856.14 659.23 C 856.04 659.53 855.76 659.73 855.45 659.73 Z M 176.60 651.47 C 176.28 651.46 176.00 651.26 175.90 650.95 C 175.03 648.13 174.18 645.25 173.38 642.40 C 173.31 642.02 173.53 641.65 173.91 641.54 C 174.28 641.44 174.67 641.64 174.80 642.00 C 175.60 644.84 176.44 647.70 177.31 650.51 C 177.43 650.90 177.21 651.31 176.82 651.43 C 176.75 651.44 176.67 651.44 176.60 651.43 Z M 860.69 642.69 C 860.62 642.70 860.56 642.70 860.49 642.69 C 860.10 642.58 859.87 642.17 859.98 641.78 C 860.77 638.97 861.54 636.08 862.27 633.21 C 862.39 632.84 862.78 632.63 863.16 632.72 C 863.54 632.82 863.77 633.20 863.70 633.58 C 862.97 636.46 862.19 639.35 861.40 642.18 C 861.31 642.50 861.02 642.72 860.69 642.72 Z M 171.79 634.35 C 171.45 634.35 171.16 634.12 171.07 633.80 C 170.34 630.93 169.64 628.02 168.98 625.14 C 168.94 624.95 168.97 624.75 169.08 624.58 C 169.18 624.42 169.35 624.30 169.54 624.26 C 169.73 624.21 169.93 624.24 170.10 624.35 C 170.26 624.45 170.38 624.62 170.42 624.81 C 171.08 627.68 171.78 630.58 172.50 633.43 C 172.60 633.82 172.36 634.23 171.97 634.33 C 171.91 634.34 171.85 634.34 171.79 634.33 Z M 865.06 625.46 C 865.01 625.47 864.95 625.47 864.90 625.46 C 864.71 625.42 864.54 625.30 864.44 625.14 C 864.33 624.97 864.30 624.77 864.34 624.58 C 864.99 621.70 865.62 618.78 866.20 615.91 C 866.28 615.51 866.67 615.25 867.07 615.34 C 867.46 615.42 867.72 615.80 867.64 616.20 C 867.06 619.08 866.44 622.01 865.78 624.91 C 865.70 625.24 865.40 625.48 865.06 625.48 Z M 167.84 617.00 C 167.49 617.00 167.18 616.76 167.11 616.41 C 166.53 613.52 165.97 610.58 165.46 607.66 C 165.39 607.26 165.66 606.87 166.06 606.80 C 166.46 606.73 166.85 607.00 166.92 607.40 C 167.43 610.31 167.98 613.24 168.56 616.12 C 168.64 616.52 168.38 616.91 167.98 616.99 Z M 868.56 608.00 L 868.44 608.00 C 868.25 607.97 868.07 607.86 867.96 607.70 C 867.85 607.54 867.81 607.34 867.84 607.15 C 868.34 604.26 868.84 601.31 869.26 598.39 C 869.34 598.01 869.71 597.76 870.09 597.82 C 870.48 597.88 870.75 598.22 870.72 598.61 C 870.28 601.54 869.80 604.50 869.29 607.40 C 869.23 607.76 868.92 608.01 868.56 608.01 Z M 164.76 599.49 C 164.39 599.49 164.08 599.22 164.03 598.86 C 163.59 595.93 163.18 592.96 162.82 590.03 C 162.82 589.65 163.09 589.33 163.47 589.29 C 163.84 589.24 164.19 589.48 164.28 589.85 C 164.64 592.77 165.05 595.72 165.49 598.64 C 165.55 599.04 165.27 599.42 164.87 599.48 L 164.76 599.48 Z M 871.19 590.42 L 871.10 590.42 C 870.90 590.40 870.73 590.29 870.61 590.14 C 870.49 589.98 870.43 589.78 870.46 589.59 C 870.82 586.68 871.15 583.71 871.46 580.78 C 871.52 580.40 871.87 580.13 872.26 580.16 C 872.65 580.20 872.94 580.53 872.93 580.92 C 872.64 583.87 872.31 586.85 871.93 589.77 C 871.89 590.14 871.57 590.42 871.20 590.42 Z M 162.56 581.85 C 162.18 581.85 161.86 581.56 161.82 581.18 C 161.53 578.25 161.27 575.26 161.05 572.31 C 161.02 571.90 161.32 571.55 161.73 571.52 C 161.93 571.50 162.12 571.57 162.27 571.69 C 162.42 571.82 162.51 572.00 162.52 572.20 C 162.74 575.14 163.00 578.11 163.29 581.04 C 163.31 581.23 163.25 581.43 163.13 581.58 C 163.00 581.73 162.82 581.82 162.63 581.84 Z M 872.94 572.73 L 872.89 572.73 C 872.69 572.72 872.51 572.63 872.38 572.48 C 872.25 572.33 872.19 572.14 872.20 571.94 C 872.42 569.01 872.60 566.03 872.75 563.09 C 872.81 562.72 873.14 562.45 873.52 562.46 C 873.89 562.48 874.20 562.78 874.22 563.16 C 874.08 566.16 873.89 569.11 873.68 572.05 C 873.65 572.44 873.33 572.73 872.94 572.73 Z M 161.23 564.12 C 160.84 564.12 160.52 563.81 160.50 563.42 C 160.35 560.42 160.24 557.48 160.16 554.52 C 160.15 554.11 160.47 553.78 160.88 553.76 C 161.08 553.75 161.27 553.82 161.41 553.96 C 161.56 554.10 161.64 554.28 161.64 554.48 C 161.71 557.48 161.83 560.41 161.97 563.34 C 161.98 563.54 161.91 563.73 161.78 563.88 C 161.65 564.02 161.47 564.11 161.27 564.12 Z M 873.81 555.00 L 873.81 555.00 C 873.40 554.98 873.08 554.65 873.09 554.24 C 873.17 551.31 873.20 548.32 873.20 545.37 L 873.20 544.86 C 873.20 544.45 873.53 544.12 873.94 544.12 C 874.35 544.12 874.68 544.45 874.68 544.86 L 874.68 545.37 C 874.68 548.37 874.68 551.37 874.57 554.28 C 874.56 554.48 874.48 554.66 874.34 554.80 C 874.20 554.93 874.01 555.01 873.81 555.00 Z M 160.81 546.37 C 160.40 546.37 160.07 546.04 160.07 545.63 L 160.07 545.37 C 160.07 542.50 160.07 539.59 160.17 536.72 C 160.17 536.52 160.25 536.34 160.40 536.20 C 160.54 536.06 160.73 535.99 160.93 536.00 C 161.34 536.02 161.66 536.35 161.65 536.76 C 161.58 539.61 161.55 542.51 161.55 545.37 L 161.55 545.63 C 161.55 546.04 161.22 546.37 160.81 546.37 Z M 873.81 536.71 C 873.41 536.71 873.08 536.39 873.07 535.99 C 872.99 533.05 872.88 530.07 872.73 527.13 C 872.72 526.93 872.79 526.74 872.92 526.59 C 873.05 526.45 873.23 526.36 873.43 526.35 C 873.83 526.34 874.18 526.65 874.21 527.05 C 874.36 530.05 874.47 533.05 874.55 535.95 C 874.56 536.36 874.24 536.69 873.83 536.71 Z M 161.22 528.60 L 161.22 528.60 C 160.81 528.57 160.50 528.23 160.52 527.82 C 160.67 524.82 160.85 521.88 161.06 518.93 C 161.09 518.52 161.44 518.22 161.85 518.25 C 162.26 518.28 162.56 518.63 162.54 519.04 C 162.32 521.97 162.14 524.95 162.00 527.90 C 161.98 528.29 161.65 528.60 161.26 528.60 Z M 872.90 519.00 C 872.51 519.00 872.19 518.70 872.17 518.31 C 871.95 515.39 871.68 512.42 871.39 509.48 C 871.37 509.09 871.66 508.75 872.05 508.71 C 872.44 508.67 872.80 508.94 872.86 509.33 C 873.15 512.28 873.42 515.27 873.64 518.20 C 873.67 518.61 873.37 518.96 872.96 519.00 Z M 162.51 510.91 L 162.43 510.91 C 162.03 510.87 161.74 510.51 161.77 510.11 C 162.06 507.17 162.39 504.19 162.77 501.26 C 162.82 500.85 163.19 500.57 163.59 500.62 C 164.00 500.66 164.29 501.03 164.24 501.44 C 163.88 504.36 163.55 507.32 163.24 510.25 C 163.20 510.63 162.89 510.92 162.51 510.92 Z M 871.13 501.31 C 870.75 501.31 870.44 501.03 870.39 500.66 C 870.03 497.76 869.62 494.80 869.18 491.88 C 869.12 491.48 869.40 491.10 869.80 491.04 C 869.99 491.01 870.19 491.06 870.35 491.17 C 870.51 491.29 870.61 491.47 870.64 491.66 C 871.08 494.59 871.49 497.56 871.86 500.48 C 871.89 500.67 871.83 500.87 871.71 501.03 C 871.59 501.18 871.42 501.29 871.22 501.31 Z M 164.68 493.31 L 164.57 493.31 C 164.17 493.25 163.89 492.87 163.95 492.47 C 164.39 489.54 164.87 486.59 165.37 483.68 C 165.44 483.28 165.82 483.01 166.22 483.08 C 166.63 483.14 166.90 483.53 166.83 483.93 C 166.32 486.83 165.83 489.77 165.41 492.69 C 165.36 493.05 165.05 493.32 164.68 493.32 Z M 868.47 483.77 C 868.11 483.77 867.81 483.51 867.75 483.16 C 867.24 480.28 866.68 477.35 866.10 474.45 C 866.02 474.05 866.28 473.67 866.67 473.59 C 867.07 473.50 867.46 473.76 867.54 474.16 C 868.13 477.07 868.69 480.01 869.20 482.91 C 869.23 483.10 869.19 483.30 869.08 483.46 C 868.97 483.62 868.79 483.73 868.60 483.76 Z M 167.74 475.77 L 167.59 475.77 C 167.19 475.69 166.93 475.30 167.01 474.90 C 167.59 472.01 168.22 469.07 168.87 466.19 C 168.92 465.92 169.11 465.69 169.37 465.61 C 169.63 465.52 169.92 465.59 170.11 465.78 C 170.31 465.97 170.39 466.26 170.31 466.52 C 169.66 469.39 169.04 472.31 168.46 475.19 C 168.37 475.51 168.07 475.72 167.74 475.72 Z M 865.00 466.28 C 864.66 466.28 864.36 466.05 864.28 465.71 C 863.62 462.84 862.92 459.94 862.19 457.09 C 862.10 456.83 862.17 456.54 862.36 456.34 C 862.56 456.15 862.84 456.07 863.11 456.15 C 863.37 456.23 863.57 456.45 863.62 456.72 C 864.35 459.59 865.06 462.50 865.72 465.38 C 865.76 465.57 865.73 465.77 865.62 465.94 C 865.52 466.10 865.35 466.22 865.16 466.26 C 865.11 466.27 865.05 466.27 865.00 466.26 Z M 171.71 458.39 L 171.53 458.39 C 171.34 458.34 171.18 458.22 171.08 458.06 C 170.98 457.89 170.95 457.69 171.00 457.50 C 171.72 454.63 172.49 451.73 173.29 448.89 C 173.34 448.62 173.55 448.40 173.81 448.32 C 174.08 448.25 174.37 448.33 174.56 448.53 C 174.75 448.74 174.81 449.03 174.71 449.29 C 173.92 452.12 173.15 455.00 172.43 457.86 C 172.34 458.19 172.05 458.41 171.71 458.42 Z M 860.60 449.06 C 860.27 449.06 859.98 448.84 859.89 448.52 C 859.09 445.70 858.25 442.84 857.37 440.01 C 857.29 439.64 857.51 439.26 857.88 439.15 C 858.24 439.04 858.64 439.22 858.78 439.58 C 859.66 442.41 860.51 445.29 861.31 448.12 C 861.42 448.51 861.19 448.92 860.80 449.03 L 860.60 449.03 Z M 176.50 441.27 L 176.29 441.27 C 175.90 441.15 175.68 440.73 175.80 440.34 C 176.67 437.50 177.59 434.64 178.53 431.83 C 178.68 431.47 179.08 431.29 179.45 431.41 C 179.82 431.53 180.03 431.92 179.93 432.30 C 178.99 435.09 178.08 437.95 177.21 440.78 C 177.11 441.09 176.82 441.30 176.50 441.30 Z M 855.34 432.08 C 855.02 432.08 854.74 431.87 854.64 431.57 C 853.70 428.79 852.71 425.97 851.70 423.20 C 851.63 423.02 851.64 422.81 851.72 422.64 C 851.81 422.46 851.96 422.33 852.14 422.26 C 852.52 422.12 852.95 422.32 853.09 422.70 C 854.09 425.48 855.09 428.31 856.09 431.10 C 856.22 431.49 856.01 431.90 855.63 432.04 C 855.55 432.05 855.47 432.05 855.39 432.04 Z M 182.17 424.35 C 182.09 424.36 182.00 424.36 181.92 424.35 C 181.74 424.28 181.59 424.14 181.50 423.97 C 181.42 423.79 181.41 423.58 181.48 423.40 C 182.48 420.61 183.55 417.80 184.63 415.04 C 184.78 414.66 185.21 414.47 185.59 414.62 C 185.97 414.77 186.16 415.20 186.01 415.58 C 184.93 418.33 183.87 421.13 182.86 423.91 C 182.75 424.20 182.48 424.39 182.17 424.39 Z M 849.24 415.35 C 848.94 415.35 848.66 415.16 848.55 414.88 C 847.47 412.15 846.35 409.40 845.21 406.70 C 845.12 406.52 845.12 406.31 845.19 406.12 C 845.26 405.93 845.41 405.78 845.60 405.70 C 845.79 405.62 846.00 405.61 846.18 405.69 C 846.37 405.76 846.52 405.91 846.60 406.10 C 847.74 408.81 848.87 411.57 849.95 414.31 C 850.04 414.50 850.04 414.71 849.96 414.90 C 849.88 415.09 849.73 415.24 849.54 415.31 C 849.45 415.34 849.36 415.36 849.27 415.36 Z M 188.68 407.72 C 188.44 407.73 188.21 407.61 188.07 407.41 C 187.93 407.20 187.90 406.95 188.00 406.72 C 189.15 403.99 190.35 401.23 191.57 398.53 C 191.74 398.16 192.18 397.99 192.55 398.16 C 192.92 398.33 193.09 398.77 192.92 399.14 C 191.70 401.83 190.51 404.57 189.36 407.29 C 189.24 407.56 188.98 407.74 188.68 407.74 Z M 842.33 399.04 C 842.04 399.04 841.78 398.87 841.66 398.60 C 840.45 395.94 839.19 393.24 837.91 390.60 C 837.82 390.42 837.81 390.22 837.87 390.03 C 837.93 389.84 838.07 389.69 838.25 389.60 C 838.62 389.42 839.07 389.57 839.25 389.94 C 840.53 392.60 841.80 395.31 843.01 397.94 C 843.10 398.12 843.11 398.33 843.04 398.52 C 842.97 398.70 842.83 398.86 842.65 398.94 C 842.55 398.99 842.45 399.01 842.34 399.01 Z M 196.00 391.51 C 195.74 391.51 195.51 391.38 195.37 391.17 C 195.24 390.95 195.22 390.68 195.34 390.45 C 196.62 387.78 197.96 385.10 199.34 382.45 C 199.53 382.09 199.97 381.94 200.34 382.12 C 200.70 382.31 200.85 382.76 200.66 383.12 C 199.31 385.75 197.98 388.43 196.66 391.12 C 196.53 391.36 196.28 391.52 196.00 391.51 Z M 834.60 383.11 C 834.32 383.11 834.07 382.96 833.94 382.71 C 832.61 380.12 831.21 377.49 829.80 374.90 C 829.64 374.67 829.63 374.36 829.76 374.12 C 829.90 373.87 830.17 373.73 830.45 373.74 C 830.73 373.76 830.98 373.93 831.09 374.19 C 832.51 376.79 833.91 379.43 835.26 382.04 C 835.35 382.21 835.37 382.42 835.31 382.61 C 835.25 382.79 835.12 382.95 834.94 383.04 C 834.84 383.09 834.72 383.12 834.60 383.12 Z M 204.13 375.66 C 203.87 375.66 203.63 375.52 203.50 375.30 C 203.36 375.07 203.36 374.80 203.49 374.57 C 204.90 371.97 206.37 369.36 207.86 366.79 C 208.06 366.44 208.51 366.32 208.87 366.52 C 209.22 366.73 209.33 367.18 209.13 367.53 C 207.66 370.08 206.19 372.69 204.78 375.28 C 204.65 375.52 204.40 375.66 204.13 375.66 Z M 826.13 367.55 C 825.87 367.55 825.62 367.41 825.49 367.18 C 824.03 364.66 822.49 362.10 820.96 359.58 C 820.86 359.42 820.82 359.22 820.87 359.03 C 820.92 358.84 821.03 358.68 821.20 358.58 C 821.54 358.38 821.99 358.48 822.20 358.82 C 823.75 361.35 825.28 363.92 826.75 366.45 C 826.95 366.80 826.83 367.25 826.48 367.45 C 826.37 367.52 826.24 367.55 826.11 367.55 Z M 213.13 360.25 C 212.99 360.25 212.86 360.21 212.74 360.14 C 212.40 359.93 212.30 359.48 212.50 359.14 C 214.04 356.62 215.64 354.08 217.25 351.59 C 217.47 351.26 217.91 351.16 218.25 351.37 C 218.57 351.59 218.67 352.03 218.47 352.37 C 216.87 354.84 215.28 357.37 213.74 359.88 C 213.59 360.14 213.30 360.29 213.00 360.25 Z M 816.89 352.43 C 816.64 352.43 816.41 352.30 816.27 352.09 C 814.67 349.62 813.02 347.14 811.37 344.72 C 811.16 344.39 811.24 343.95 811.56 343.72 C 811.89 343.50 812.34 343.59 812.56 343.92 C 814.23 346.35 815.88 348.84 817.49 351.32 C 817.70 351.65 817.61 352.10 817.28 352.32 C 817.16 352.40 817.02 352.44 816.88 352.44 Z M 222.79 345.30 C 222.64 345.30 222.50 345.25 222.38 345.17 C 222.06 344.94 221.97 344.50 222.19 344.17 C 223.85 341.73 225.57 339.27 227.31 336.87 C 227.55 336.54 228.01 336.47 228.34 336.70 C 228.66 336.94 228.74 337.40 228.50 337.73 C 226.78 340.12 225.06 342.57 223.40 345.00 C 223.26 345.20 223.03 345.32 222.79 345.32 Z M 806.87 337.78 C 806.63 337.78 806.41 337.66 806.27 337.47 C 804.55 335.08 802.78 332.69 801.00 330.35 C 800.78 330.02 800.85 329.58 801.17 329.34 C 801.48 329.11 801.93 329.16 802.18 329.46 C 803.96 331.80 805.74 334.21 807.47 336.61 C 807.69 336.94 807.61 337.37 807.30 337.61 C 807.17 337.70 807.02 337.75 806.87 337.75 Z M 233.19 330.86 C 232.91 330.86 232.66 330.70 232.53 330.45 C 232.41 330.20 232.43 329.90 232.60 329.68 C 234.39 327.31 236.24 324.95 238.08 322.68 C 238.33 322.38 238.77 322.33 239.08 322.57 C 239.38 322.82 239.43 323.26 239.20 323.57 C 237.37 325.87 235.53 328.23 233.75 330.57 C 233.61 330.75 233.39 330.86 233.16 330.86 Z M 796.00 323.64 C 795.77 323.64 795.56 323.54 795.42 323.36 C 793.59 321.07 791.70 318.77 789.80 316.51 C 789.56 316.20 789.60 315.77 789.89 315.51 C 790.19 315.26 790.64 315.30 790.89 315.60 C 792.80 317.87 794.70 320.18 796.54 322.48 C 796.77 322.79 796.72 323.23 796.42 323.48 C 796.29 323.59 796.13 323.64 795.96 323.64 Z M 244.17 317.00 C 244.00 317.00 243.83 316.94 243.69 316.83 C 243.40 316.57 243.36 316.14 243.60 315.83 C 245.51 313.56 247.46 311.29 249.42 309.07 C 249.70 308.77 250.17 308.74 250.47 309.02 C 250.77 309.30 250.80 309.77 250.52 310.07 C 248.58 312.28 246.63 314.54 244.73 316.80 C 244.59 316.97 244.39 317.06 244.17 317.06 Z M 784.58 310.00 C 784.37 310.00 784.17 309.91 784.03 309.75 C 782.08 307.55 780.08 305.34 778.03 303.18 C 777.80 302.88 777.84 302.45 778.12 302.19 C 778.40 301.94 778.83 301.93 779.11 302.18 C 781.11 304.35 783.11 306.57 785.11 308.77 C 785.38 309.08 785.35 309.55 785.05 309.82 C 784.91 309.94 784.74 310.00 784.56 310.00 Z M 255.94 303.59 C 255.75 303.59 255.58 303.52 255.44 303.39 C 255.18 303.11 255.18 302.67 255.44 302.39 C 257.44 300.23 259.50 298.06 261.58 295.94 C 261.86 295.68 262.30 295.68 262.58 295.94 C 262.72 296.08 262.80 296.27 262.80 296.46 C 262.80 296.66 262.72 296.85 262.58 296.99 C 260.52 299.10 258.46 301.26 256.47 303.41 C 256.33 303.56 256.14 303.65 255.93 303.65 Z M 772.48 297.00 C 772.28 297.00 772.09 296.92 771.95 296.78 C 769.89 294.67 767.78 292.57 765.68 290.51 C 765.53 290.22 765.58 289.87 765.81 289.64 C 766.04 289.41 766.39 289.36 766.68 289.51 C 768.79 291.57 770.91 293.68 772.98 295.80 C 773.24 296.08 773.24 296.52 772.98 296.80 C 772.84 296.93 772.65 297.01 772.46 297.01 Z M 268.35 290.90 C 268.05 290.90 267.79 290.72 267.67 290.44 C 267.56 290.17 267.62 289.85 267.83 289.64 C 269.95 287.57 272.12 285.51 274.28 283.50 C 274.47 283.29 274.76 283.20 275.03 283.27 C 275.30 283.35 275.51 283.57 275.56 283.85 C 275.62 284.13 275.51 284.41 275.28 284.58 C 273.12 286.58 270.96 288.64 268.85 290.69 C 268.71 290.82 268.53 290.90 268.34 290.90 Z M 759.75 284.62 C 759.56 284.62 759.39 284.55 759.25 284.42 C 757.09 282.42 754.88 280.42 752.67 278.47 C 752.39 278.20 752.37 277.77 752.61 277.47 C 752.87 277.19 753.31 277.15 753.61 277.40 C 755.82 279.40 758.04 281.40 760.21 283.40 C 760.47 283.68 760.47 284.12 760.21 284.40 C 760.07 284.55 759.88 284.64 759.67 284.64 Z M 281.37 278.81 C 281.16 278.81 280.96 278.72 280.82 278.56 C 280.57 278.26 280.60 277.82 280.88 277.56 C 283.09 275.61 285.36 273.65 287.62 271.75 C 287.93 271.51 288.36 271.55 288.62 271.84 C 288.87 272.14 288.83 272.59 288.53 272.84 C 286.28 274.73 284.02 276.68 281.82 278.63 C 281.68 278.75 281.51 278.81 281.33 278.81 Z M 746.42 272.81 C 746.24 272.81 746.07 272.75 745.94 272.64 C 743.69 270.75 741.38 268.86 739.07 267.02 C 738.80 266.75 738.77 266.33 739.01 266.03 C 739.25 265.73 739.67 265.66 739.99 265.87 C 742.31 267.72 744.63 269.61 746.89 271.51 C 747.18 271.77 747.22 272.20 746.98 272.51 C 746.84 272.68 746.64 272.77 746.42 272.77 Z M 295.00 267.38 C 294.68 267.39 294.40 267.19 294.29 266.89 C 294.19 266.59 294.29 266.26 294.54 266.07 C 296.84 264.23 299.20 262.39 301.54 260.60 C 301.87 260.38 302.31 260.45 302.55 260.77 C 302.78 261.08 302.73 261.53 302.43 261.78 C 300.09 263.56 297.73 265.39 295.43 267.22 C 295.30 267.33 295.14 267.39 294.97 267.39 Z M 732.54 261.76 C 732.38 261.76 732.22 261.71 732.09 261.61 C 729.75 259.83 727.34 258.06 724.95 256.34 C 724.62 256.10 724.54 255.64 724.78 255.31 C 725.03 254.97 725.49 254.90 725.82 255.14 C 728.22 256.87 730.63 258.65 732.99 260.44 C 733.30 260.68 733.36 261.12 733.13 261.44 C 732.99 261.62 732.77 261.73 732.54 261.73 Z M 309.14 256.65 C 308.82 256.65 308.54 256.44 308.44 256.14 C 308.34 255.83 308.45 255.50 308.71 255.31 C 311.10 253.59 313.55 251.87 315.99 250.20 C 316.21 250.03 316.50 249.99 316.76 250.10 C 317.01 250.22 317.18 250.46 317.19 250.74 C 317.20 251.02 317.06 251.28 316.82 251.42 C 314.40 253.08 311.96 254.79 309.57 256.51 C 309.44 256.60 309.29 256.65 309.14 256.65 Z M 718.14 251.37 C 717.99 251.37 717.84 251.33 717.72 251.24 C 715.29 249.59 712.81 247.93 710.32 246.33 C 709.99 246.11 709.89 245.67 710.10 245.33 C 710.32 245.01 710.76 244.91 711.10 245.11 C 713.59 246.72 716.10 248.38 718.52 250.04 C 718.84 250.27 718.93 250.71 718.72 251.04 C 718.58 251.24 718.35 251.36 718.11 251.36 Z M 323.84 246.63 C 323.51 246.63 323.22 246.42 323.13 246.10 C 323.03 245.79 323.15 245.45 323.43 245.27 C 325.91 243.67 328.43 242.08 330.96 240.53 C 331.31 240.33 331.75 240.44 331.96 240.78 C 332.06 240.94 332.10 241.14 332.05 241.33 C 332.00 241.52 331.89 241.68 331.72 241.78 C 329.21 243.32 326.72 244.91 324.23 246.50 C 324.11 246.58 323.97 246.62 323.83 246.62 Z M 703.19 241.71 C 703.05 241.71 702.92 241.67 702.80 241.60 C 700.28 240.06 697.71 238.53 695.17 237.06 C 695.00 236.96 694.88 236.80 694.83 236.62 C 694.78 236.43 694.80 236.23 694.90 236.06 C 695.00 235.89 695.16 235.77 695.34 235.72 C 695.53 235.67 695.73 235.69 695.90 235.79 C 698.46 237.27 701.04 238.79 703.57 240.35 C 703.85 240.52 703.98 240.86 703.89 241.18 C 703.81 241.50 703.52 241.72 703.19 241.72 Z M 338.96 237.36 C 338.63 237.36 338.33 237.13 338.25 236.81 C 338.16 236.49 338.30 236.15 338.59 235.98 C 341.14 234.51 343.74 233.04 346.34 231.62 C 346.70 231.42 347.15 231.56 347.35 231.91 C 347.54 232.27 347.41 232.72 347.05 232.92 C 344.46 234.33 341.87 235.79 339.33 237.26 C 339.22 237.33 339.09 237.36 338.96 237.36 Z M 687.70 232.80 C 687.58 232.80 687.46 232.77 687.35 232.71 C 684.76 231.30 682.12 229.91 679.49 228.56 C 679.13 228.37 678.98 227.93 679.16 227.56 C 679.35 227.20 679.80 227.05 680.16 227.24 C 682.80 228.60 685.46 230.00 688.05 231.42 C 688.41 231.61 688.54 232.06 688.35 232.42 C 688.22 232.65 687.97 232.80 687.70 232.80 Z M 354.46 228.86 C 354.18 228.86 353.93 228.70 353.80 228.46 C 353.71 228.29 353.69 228.08 353.75 227.89 C 353.81 227.71 353.94 227.55 354.12 227.46 C 356.73 226.12 359.41 224.78 362.07 223.46 C 362.43 223.28 362.87 223.44 363.05 223.80 C 363.23 224.16 363.07 224.60 362.71 224.78 C 360.06 226.06 357.40 227.39 354.79 228.78 C 354.69 228.84 354.58 228.86 354.46 228.86 Z M 671.85 224.67 C 671.74 224.67 671.63 224.65 671.53 224.60 C 668.88 223.32 666.16 222.06 663.47 220.84 C 663.28 220.76 663.14 220.61 663.07 220.42 C 663.00 220.23 663.01 220.02 663.10 219.84 C 663.18 219.66 663.33 219.51 663.52 219.44 C 663.71 219.37 663.92 219.38 664.10 219.47 C 666.80 220.69 669.53 221.96 672.19 223.24 C 672.37 223.33 672.51 223.48 672.57 223.67 C 672.63 223.86 672.62 224.06 672.53 224.24 C 672.41 224.49 672.15 224.65 671.87 224.65 Z M 370.41 221.14 C 370.12 221.14 369.86 220.97 369.74 220.71 C 369.65 220.53 369.64 220.32 369.71 220.13 C 369.78 219.94 369.93 219.79 370.11 219.71 C 372.78 218.50 375.52 217.30 378.24 216.15 C 378.49 216.03 378.78 216.06 379.00 216.22 C 379.22 216.38 379.33 216.65 379.29 216.92 C 379.26 217.19 379.07 217.41 378.82 217.51 C 376.11 218.66 373.38 219.85 370.72 221.06 C 370.62 221.10 370.52 221.12 370.41 221.12 Z M 655.60 217.35 C 655.50 217.35 655.41 217.33 655.32 217.29 C 652.60 216.14 649.83 215.02 647.07 213.94 C 646.88 213.87 646.73 213.72 646.65 213.53 C 646.57 213.34 646.57 213.13 646.66 212.94 C 646.73 212.75 646.88 212.59 647.07 212.51 C 647.26 212.44 647.47 212.44 647.66 212.53 C 650.43 213.61 653.21 214.74 655.94 215.89 C 656.26 216.03 656.44 216.37 656.37 216.72 C 656.30 217.06 656.00 217.31 655.65 217.31 Z M 386.73 214.24 C 386.43 214.23 386.16 214.05 386.04 213.77 C 385.95 213.58 385.95 213.37 386.03 213.18 C 386.11 212.99 386.26 212.84 386.46 212.77 C 389.21 211.68 392.01 210.62 394.79 209.60 C 395.17 209.47 395.59 209.66 395.73 210.04 C 395.80 210.22 395.79 210.43 395.71 210.61 C 395.63 210.79 395.48 210.92 395.29 210.99 C 392.53 211.99 389.74 213.06 387.00 214.14 C 386.91 214.17 386.82 214.19 386.73 214.19 Z M 639.00 210.85 C 638.92 210.86 638.83 210.86 638.75 210.85 C 635.98 209.85 633.15 208.85 630.35 207.92 C 630.00 207.77 629.82 207.37 629.94 207.01 C 630.06 206.65 630.44 206.43 630.81 206.52 C 633.63 207.46 636.47 208.45 639.25 209.46 C 639.58 209.59 639.77 209.93 639.71 210.28 C 639.65 210.63 639.35 210.88 639.00 210.89 Z M 403.43 208.14 C 403.11 208.14 402.83 207.94 402.73 207.64 C 402.60 207.25 402.81 206.84 403.19 206.70 C 405.99 205.76 408.84 204.84 411.67 203.97 C 411.86 203.91 412.06 203.93 412.23 204.02 C 412.40 204.11 412.53 204.26 412.59 204.45 C 412.71 204.84 412.49 205.26 412.10 205.38 C 409.29 206.25 406.45 207.16 403.66 208.10 C 403.58 208.11 403.51 208.11 403.43 208.10 Z M 622.08 205.14 C 622.01 205.15 621.94 205.15 621.87 205.14 C 619.06 204.28 616.19 203.44 613.35 202.65 C 612.96 202.54 612.72 202.13 612.84 201.74 C 612.95 201.34 613.36 201.11 613.75 201.22 C 616.60 202.02 619.48 202.86 622.30 203.73 C 622.64 203.85 622.85 204.19 622.79 204.54 C 622.74 204.90 622.44 205.16 622.08 205.17 Z M 420.41 202.85 C 420.04 202.85 419.74 202.57 419.69 202.21 C 419.64 201.85 419.86 201.50 420.21 201.40 C 423.05 200.60 425.94 199.83 428.81 199.09 C 429.19 199.02 429.57 199.25 429.67 199.63 C 429.76 200.01 429.55 200.40 429.18 200.52 C 426.32 201.25 423.44 202.03 420.61 202.82 C 420.54 202.83 420.48 202.83 420.41 202.82 Z M 605.00 200.40 L 604.82 200.40 C 601.97 199.67 599.07 198.98 596.20 198.33 C 595.92 198.29 595.69 198.10 595.60 197.84 C 595.51 197.57 595.58 197.28 595.77 197.08 C 595.96 196.88 596.25 196.81 596.52 196.89 C 599.41 197.54 602.32 198.24 605.18 198.96 C 605.55 199.05 605.79 199.40 605.74 199.77 C 605.70 200.15 605.38 200.42 605.00 200.42 Z M 437.68 198.50 C 437.34 198.50 437.04 198.27 436.96 197.93 C 436.87 197.53 437.11 197.13 437.51 197.04 C 440.39 196.39 443.32 195.75 446.22 195.17 C 446.62 195.09 447.00 195.35 447.08 195.75 C 447.17 196.14 446.91 196.53 446.51 196.61 C 443.62 197.20 440.70 197.83 437.84 198.48 L 437.67 198.48 Z M 587.68 196.50 L 587.54 196.50 C 584.66 195.93 581.72 195.38 578.82 194.87 C 578.54 194.85 578.29 194.67 578.18 194.41 C 578.07 194.15 578.13 193.85 578.32 193.64 C 578.50 193.43 578.80 193.34 579.07 193.42 C 581.99 193.93 584.93 194.48 587.83 195.06 C 588.02 195.10 588.19 195.21 588.30 195.37 C 588.41 195.53 588.45 195.73 588.41 195.92 C 588.34 196.26 588.04 196.51 587.69 196.52 Z M 455.06 195.00 C 454.67 195.00 454.35 194.71 454.31 194.33 C 454.28 193.94 454.55 193.59 454.93 193.53 C 457.85 193.02 460.80 192.53 463.72 192.10 C 464.11 192.07 464.45 192.34 464.51 192.73 C 464.57 193.11 464.32 193.48 463.94 193.56 C 461.04 193.99 458.09 194.48 455.19 194.99 Z M 570.11 193.45 L 570.00 193.45 C 567.10 193.02 564.14 192.62 561.21 192.26 C 560.84 192.17 560.60 191.82 560.65 191.45 C 560.69 191.07 561.01 190.80 561.39 190.80 C 564.33 191.16 567.30 191.56 570.22 191.99 C 570.62 192.05 570.90 192.43 570.84 192.83 C 570.79 193.19 570.48 193.46 570.11 193.46 Z M 472.64 192.35 C 472.26 192.34 471.95 192.04 471.93 191.66 C 471.91 191.28 472.17 190.94 472.55 190.88 C 475.47 190.51 478.45 190.18 481.40 189.88 C 481.80 189.84 482.16 190.14 482.20 190.54 C 482.24 190.94 481.94 191.30 481.54 191.34 C 478.61 191.64 475.64 191.97 472.73 192.34 Z M 552.47 191.28 L 552.40 191.28 C 549.47 190.99 546.49 190.74 543.56 190.52 C 543.36 190.51 543.18 190.42 543.05 190.27 C 542.93 190.12 542.86 189.93 542.88 189.73 C 542.92 189.33 543.27 189.03 543.67 189.05 C 546.61 189.27 549.60 189.52 552.54 189.81 C 552.91 189.87 553.18 190.20 553.17 190.58 C 553.15 190.95 552.85 191.26 552.47 191.28 Z M 490.32 190.58 C 489.94 190.55 489.65 190.24 489.64 189.87 C 489.62 189.49 489.90 189.16 490.27 189.11 C 493.27 188.89 496.21 188.70 499.16 188.55 C 499.57 188.53 499.92 188.85 499.94 189.25 C 499.95 189.66 499.64 190.01 499.23 190.03 C 496.30 190.17 493.32 190.36 490.38 190.58 Z M 534.74 189.99 L 534.74 189.99 C 531.80 189.85 528.82 189.74 525.88 189.67 C 525.68 189.67 525.50 189.59 525.36 189.45 C 525.22 189.31 525.15 189.12 525.16 188.92 C 525.18 188.52 525.51 188.20 525.91 188.20 C 528.91 188.27 531.91 188.38 534.81 188.52 C 535.18 188.56 535.46 188.88 535.46 189.25 C 535.46 189.63 535.18 189.95 534.81 189.99 Z M 508.08 189.69 C 507.71 189.65 507.43 189.33 507.43 188.95 C 507.43 188.58 507.71 188.26 508.08 188.22 C 511.08 188.14 514.03 188.10 516.99 188.10 L 516.99 188.10 C 517.40 188.10 517.73 188.43 517.73 188.84 C 517.72 189.24 517.39 189.57 516.99 189.57 C 514.05 189.57 511.06 189.57 508.12 189.69 Z" fill="#292a2e" fill-rule="nonzero" group-id="1" node-id="225" stroke="none" target-height="714.58997" target-width="714.61" target-x="160.07" target-y="188.10002"></path><g node-id="379"><path d="M 649.33 413.42 C 722.22 486.30 722.22 604.48 649.33 677.36 C 576.44 750.25 458.27 750.25 385.38 677.36 C 312.50 604.48 312.50 486.30 385.38 413.42 C 458.27 340.53 576.44 340.53 649.33 413.42 Z" fill="#e0eaff" fill-rule="nonzero" group-id="1,3" node-id="229" stroke="none" target-height="409.72382" target-width="409.72382" target-x="312.4959" target-y="340.52832"></path></g><path d="M 517.36 368.74 C 601.64 368.74 674.17 428.27 690.62 510.93 C 707.06 593.58 662.82 676.34 584.96 708.59 C 507.10 740.84 417.30 713.60 370.48 643.53 C 323.66 573.46 332.86 480.07 392.45 420.48 C 425.51 387.24 470.48 368.61 517.36 368.74 M 517.36 348.74 C 408.75 348.74 320.71 436.74 320.71 545.39 C 320.71 654.04 408.75 742.00 517.36 742.00 C 625.97 742.00 714.00 654.00 714.00 545.39 C 714.00 436.78 626.00 348.74 517.36 348.74 Z" fill="#d6e8ff" fill-rule="nonzero" group-id="1" node-id="232" stroke="none" target-height="393.26" target-width="393.29" target-x="320.71" target-y="348.74"></path><path d="M 920.23 464.41 C 920.23 514.81 879.38 555.66 828.98 555.66 C 778.58 555.66 737.73 514.81 737.73 464.41 C 737.73 414.01 778.58 373.16 828.98 373.16 C 879.38 373.16 920.23 414.01 920.23 464.41 Z" fill="#ffffff" fill-rule="nonzero" group-id="1" node-id="234" stroke="none" target-height="182.50003" target-width="182.5" target-x="737.73" target-y="373.16"></path><g node-id="380"><path d="M 920.23 464.41 C 920.23 514.81 879.38 555.66 828.98 555.66 C 778.58 555.66 737.73 514.81 737.73 464.41 C 737.73 414.01 778.58 373.16 828.98 373.16 C 879.38 373.16 920.23 414.01 920.23 464.41 Z" fill="#367cff" fill-opacity="0.1" fill-rule="nonzero" group-id="1,4" node-id="238" stroke="none" target-height="182.50003" target-width="182.5" target-x="737.73" target-y="373.16"></path></g><path d="M 815.26 482.51 L 839.20 482.51 L 880.75 422.59 L 773.67 422.63 L 815.26 482.51 Z" fill="#a1d7ff" fill-rule="nonzero" group-id="1" node-id="241" stroke="none" target-height="59.920013" target-width="107.08002" target-x="773.67" target-y="422.59003"></path><path d="M 812.69 479.04 L 841.77 479.04 C 843.17 479.04 844.31 480.18 844.31 481.58 L 844.31 504.51 C 844.31 505.91 843.17 507.05 841.77 507.05 L 812.69 507.05 C 811.29 507.05 810.15 505.91 810.15 504.51 L 810.15 481.58 C 810.15 480.18 811.29 479.04 812.69 479.04 Z" fill="#fcbe32" fill-rule="nonzero" group-id="1" node-id="243" stroke="none" target-height="28.01001" target-width="34.160034" target-x="810.15" target-y="479.04"></path><path d="M 259.41 466.98 C 259.41 518.80 217.41 560.80 165.59 560.80 C 113.77 560.80 71.77 518.80 71.77 466.98 C 71.77 415.16 113.77 373.16 165.59 373.16 C 217.41 373.16 259.41 415.16 259.41 466.98 Z" fill="#ffffff" fill-rule="nonzero" group-id="1" node-id="245" stroke="none" target-height="187.63998" target-width="187.64001" target-x="71.76999" target-y="373.16"></path><g node-id="381"><path d="M 259.41 466.98 C 259.41 518.80 217.41 560.80 165.59 560.80 C 113.77 560.80 71.77 518.80 71.77 466.98 C 71.77 415.16 113.77 373.16 165.59 373.16 C 217.41 373.16 259.41 415.16 259.41 466.98 Z" fill="#367cff" fill-opacity="0.1" fill-rule="nonzero" group-id="1,5" node-id="249" stroke="none" target-height="187.63998" target-width="187.64001" target-x="71.76999" target-y="373.16"></path></g><path d="M 176.65 480.40 L 108.58 480.40 C 103.43 480.40 99.25 476.22 99.24 471.07 L 99.24 424.42 C 99.24 419.26 103.42 415.08 108.58 415.08 L 141.58 415.08 L 186.00 471.08 C 185.99 476.23 181.80 480.41 176.65 480.40 Z" fill="#f98c32" fill-rule="nonzero" group-id="1" node-id="252" stroke="none" target-height="65.32553" target-width="86.76" target-x="99.24" target-y="415.08"></path><path d="M 104.89 425.84 L 180.33 425.84 C 183.45 425.84 185.98 428.37 185.98 431.49 L 185.98 485.51 C 185.98 488.63 183.45 491.16 180.33 491.16 L 104.89 491.16 C 101.77 491.16 99.24 488.63 99.24 485.51 L 99.24 431.49 C 99.24 428.37 101.77 425.84 104.89 425.84 Z" fill="#fcbe32" fill-rule="nonzero" group-id="1" node-id="254" stroke="none" target-height="65.32001" target-width="86.73998" target-x="99.24" target-y="425.84"></path><path d="M 179.33 462.33 L 223.03 462.33 C 225.26 462.33 227.40 463.22 228.98 464.79 C 230.55 466.37 231.44 468.51 231.44 470.74 L 231.44 514.44 C 231.44 519.08 227.67 522.85 223.03 522.85 L 179.33 522.85 C 174.69 522.85 170.92 519.08 170.92 514.44 L 170.92 470.74 C 170.92 468.51 171.81 466.37 173.38 464.79 C 174.96 463.22 177.10 462.33 179.33 462.33 Z" fill="#fdfeff" fill-rule="nonzero" group-id="1" node-id="256" stroke="none" target-height="60.51999" target-width="60.520004" target-x="170.92" target-y="462.33"></path><path d="M 214.59 506.00 C 214.59 510.28 211.12 513.75 206.84 513.75 C 202.56 513.75 199.09 510.28 199.09 506.00 C 199.09 501.72 202.56 498.25 206.84 498.25 C 211.12 498.25 214.59 501.72 214.59 506.00 Z" fill="#46a6e8" fill-rule="nonzero" group-id="1" node-id="258" stroke="none" target-height="15.5" target-width="15.5" target-x="199.09" target-y="498.25"></path><path d="M 193.45 493.63 C 193.45 497.52 190.30 500.67 186.41 500.67 C 182.52 500.67 179.37 497.52 179.37 493.63 C 179.37 489.74 182.52 486.59 186.41 486.59 C 190.30 486.59 193.45 489.74 193.45 493.63 Z" fill="#46a6e8" fill-rule="nonzero" group-id="1" node-id="260" stroke="none" target-height="14.079987" target-width="14.079987" target-x="179.37001" target-y="486.59003"></path><path d="M 211.42 475.32 C 211.42 477.85 209.37 479.90 206.84 479.90 C 204.31 479.90 202.26 477.85 202.26 475.32 C 202.26 472.79 204.31 470.74 206.84 470.74 C 209.37 470.74 211.42 472.79 211.42 475.32 Z" fill="#46a6e8" fill-rule="nonzero" group-id="1" node-id="262" stroke="none" target-height="9.159943" target-width="9.160004" target-x="202.26" target-y="470.74002"></path><path d="M 206.58 506.46 L 185.58 493.71 L 206.51 474.95 L 207.18 475.69 L 187.25 493.56 L 207.10 505.60 L 206.58 506.46 Z" fill="#46a6e8" fill-rule="nonzero" group-id="1" node-id="264" stroke="none" target-height="31.50998" target-width="21.59999" target-x="185.58002" target-y="474.95"></path><path d="M 828.19 810.95 C 828.19 864.12 785.08 907.23 731.91 907.23 C 678.74 907.23 635.63 864.12 635.63 810.95 C 635.63 757.78 678.74 714.67 731.91 714.67 C 785.08 714.67 828.19 757.78 828.19 810.95 Z" fill="#ffffff" fill-rule="nonzero" group-id="1" node-id="266" stroke="none" target-height="192.55988" target-width="192.55988" target-x="635.63" target-y="714.6701"></path><g node-id="382"><path d="M 828.19 813.52 C 828.19 866.69 785.08 909.80 731.91 909.80 C 678.74 909.80 635.63 866.69 635.63 813.52 C 635.63 760.35 678.74 717.24 731.91 717.24 C 785.08 717.24 828.19 760.35 828.19 813.52 Z" fill="#367cff" fill-opacity="0.1" fill-rule="nonzero" group-id="1,6" node-id="270" stroke="none" target-height="192.56012" target-width="192.55988" target-x="635.63" target-y="717.24"></path></g><path d="M 746.60 810.79 L 736.52 824.00 L 782.52 859.11 C 784.27 860.45 786.48 861.04 788.67 860.74 C 790.85 860.45 792.83 859.30 794.17 857.55 L 794.17 857.55 C 795.51 855.80 796.10 853.59 795.80 851.40 C 795.51 849.22 794.36 847.24 792.61 845.90 Z" fill="#3c5b8c" fill-rule="nonzero" group-id="1" node-id="273" stroke="none" target-height="50.24585" target-width="59.575867" target-x="736.52" target-y="810.79004"></path><g node-id="383"><path d="M 751.02 771.72 C 762.72 791.45 756.21 816.92 736.49 828.62 C 716.76 840.31 691.29 833.81 679.59 814.08 C 667.90 794.36 674.40 768.88 694.13 757.19 C 713.85 745.49 739.33 752.00 751.02 771.72 Z" fill="#3c5b8c" fill-rule="nonzero" group-id="1,7" node-id="277" stroke="none" target-height="94.82666" target-width="94.82666" target-x="667.89575" target-y="745.4883"></path></g><path d="M 743.31 792.71 C 745.46 808.73 734.22 823.46 718.20 825.62 C 702.18 827.77 687.45 816.53 685.29 800.51 C 683.14 784.49 694.38 769.75 710.40 767.60 C 718.09 766.57 725.88 768.63 732.06 773.34 C 738.23 778.05 742.28 785.02 743.31 792.71 Z" fill="#a1d7ff" fill-rule="nonzero" group-id="1" node-id="280" stroke="none" target-height="61.2063" target-width="62.32538" target-x="683.1379" target-y="766.5653"></path><path d="M 720.28 776.75 C 719.03 776.37 717.71 777.08 717.34 778.34 C 716.96 779.59 717.67 780.90 718.92 781.28 C 724.93 783.09 729.32 788.25 730.16 794.47 C 730.40 795.70 731.56 796.54 732.80 796.37 C 734.05 796.20 734.95 795.09 734.85 793.84 C 733.75 785.78 728.06 779.11 720.28 776.75 Z" fill="#ffffff" fill-rule="nonzero" group-id="1" node-id="282" stroke="none" target-height="20.161316" target-width="17.985718" target-x="716.9595" target-y="776.37445"></path><path d="M 712.77 775.93 C 712.36 775.93 711.95 776.01 711.54 776.06 C 710.66 776.13 709.90 776.67 709.55 777.48 C 709.20 778.29 709.32 779.22 709.87 779.91 C 710.42 780.59 711.31 780.92 712.17 780.75 C 712.49 780.75 712.80 780.67 713.11 780.65 L 713.26 780.65 C 714.51 780.46 715.40 779.32 715.27 778.06 C 715.14 776.80 714.04 775.86 712.77 775.94 Z" fill="#ffffff" fill-rule="nonzero" group-id="1" node-id="284" stroke="none" target-height="5.0528564" target-width="6.204468" target-x="709.19543" target-y="775.8643"></path><path d="M 605.82 198.76 C 605.82 250.58 563.82 292.58 512.00 292.58 C 460.18 292.58 418.18 250.58 418.18 198.76 C 418.18 146.94 460.18 104.94 512.00 104.94 C 563.82 104.94 605.82 146.94 605.82 198.76 Z" fill="#ffffff" fill-rule="nonzero" group-id="1" node-id="286" stroke="none" target-height="187.63998" target-width="187.64005" target-x="418.17996" target-y="104.939995"></path><g node-id="384"><path d="M 605.82 198.76 C 605.82 250.58 563.82 292.58 512.00 292.58 C 460.18 292.58 418.18 250.58 418.18 198.76 C 418.18 146.94 460.18 104.94 512.00 104.94 C 563.82 104.94 605.82 146.94 605.82 198.76 Z" fill="#367cff" fill-opacity="0.1" fill-rule="nonzero" group-id="1,8" node-id="290" stroke="none" target-height="187.63998" target-width="187.64005" target-x="418.17996" target-y="104.939995"></path></g><g node-id="385"><path d="M 505.65 171.12 L 507.34 157.63 L 509.36 157.88 L 507.66 171.38 Z" fill="#2e688c" fill-rule="nonzero" group-id="1,9" node-id="295" stroke="none" target-height="13.746979" target-width="3.7092896" target-x="505.64755" target-y="157.62961"></path></g><path d="M 533.00 188.84 L 532.14 187.01 L 534.80 185.75 L 535.66 187.59 Z M 537.50 186.72 L 536.63 184.89 L 540.30 183.16 L 541.16 184.99 Z M 543.00 184.12 L 542.13 182.29 L 545.80 180.56 L 546.66 182.39 Z M 548.50 181.52 L 547.63 179.69 L 551.30 177.96 L 552.16 179.79 Z M 554.00 178.93 L 553.13 177.09 L 556.80 175.36 L 557.66 177.19 Z M 559.50 176.33 L 558.63 174.49 L 562.30 172.76 L 563.16 174.60 Z" fill="#2e688c" fill-rule="nonzero" group-id="1" node-id="298" stroke="none" target-height="16.079987" target-width="31.019958" target-x="532.14" target-y="172.76001"></path><g node-id="386"><path d="M 534.33 202.58 L 534.61 200.57 L 565.39 204.87 L 565.11 206.88 Z" fill="#2e688c" fill-rule="nonzero" group-id="1,10" node-id="302" stroke="none" target-height="6.303772" target-width="31.062439" target-x="534.3266" target-y="200.57245"></path></g><g node-id="387"><path d="M 507.49 221.28 L 509.50 221.01 L 513.98 255.18 L 511.97 255.44 Z" fill="#2e688c" fill-rule="nonzero" group-id="1,11" node-id="307" stroke="none" target-height="34.428802" target-width="6.4960327" target-x="507.487" target-y="221.01212"></path></g><g node-id="388"><path d="M 448.61 178.58 L 449.26 176.66 L 483.08 188.07 L 482.43 190.00 Z" fill="#2e688c" fill-rule="nonzero" group-id="1,12" node-id="312" stroke="none" target-height="13.339752" target-width="34.47455" target-x="448.60953" target-y="176.65698"></path></g><path d="M 528.79 182.86 C 519.31 170.10 501.28 167.45 488.52 176.93 C 475.77 186.41 473.11 204.44 482.59 217.20 C 492.08 229.96 510.10 232.61 522.86 223.13 C 528.99 218.58 533.06 211.78 534.17 204.22 C 535.28 196.67 533.35 188.99 528.79 182.86 Z M 490.23 211.52 C 483.90 202.98 485.69 190.91 494.23 184.58 C 502.78 178.25 514.84 180.04 521.17 188.58 C 527.51 197.12 525.72 209.18 517.18 215.52 C 508.63 221.85 496.57 220.06 490.23 211.52 Z" fill="#168cdb" fill-rule="nonzero" group-id="1" node-id="315" stroke="none" target-height="65.15985" target-width="62.16925" target-x="473.11322" target-y="167.45078"></path><path d="M 490.23 211.52 C 483.88 202.98 485.65 190.91 494.19 184.56 C 502.73 178.21 514.80 179.98 521.15 188.52 L 528.79 182.84 C 519.31 170.08 501.28 167.43 488.52 176.91 C 475.76 186.39 473.11 204.42 482.59 217.18 Z" fill="#3c5b8c" fill-rule="nonzero" group-id="1" node-id="317" stroke="none" target-height="49.752716" target-width="55.68274" target-x="473.10724" target-y="167.42728"></path><path d="M 520.20 139.29 C 517.37 135.48 512.53 133.75 507.92 134.91 C 503.32 136.07 499.87 139.88 499.18 144.57 C 498.49 149.27 500.69 153.92 504.76 156.35 C 508.83 158.79 513.97 158.53 517.78 155.70 C 522.97 151.83 524.06 144.49 520.20 139.29 Z M 506.00 149.83 C 504.56 147.90 504.43 145.29 505.67 143.23 C 506.91 141.16 509.26 140.04 511.65 140.39 C 514.03 140.75 515.96 142.50 516.55 144.83 C 517.13 147.17 516.25 149.63 514.32 151.06 C 511.68 152.99 507.97 152.44 506.00 149.83 Z" fill="#59b7ca" fill-rule="nonzero" group-id="1" node-id="319" stroke="none" target-height="25.034744" target-width="25.569855" target-x="498.4871" target-y="133.75212"></path><g node-id="389"><path d="M 504.48 151.00 C 501.89 147.52 502.62 142.60 506.10 140.01 C 509.57 137.43 514.49 138.15 517.08 141.63 L 520.20 139.32 C 516.33 134.12 508.98 133.04 503.79 136.91 C 498.59 140.77 497.50 148.12 501.37 153.32 Z" fill="#59b7ca" fill-opacity="0.5" fill-rule="nonzero" group-id="1,13" node-id="323" stroke="none" target-height="20.281006" target-width="22.696014" target-x="497.504" target-y="133.039"></path></g><g node-id="390"><path d="M 566.08 159.84 C 573.11 160.88 577.97 167.42 576.94 174.45 C 575.90 181.48 569.36 186.34 562.33 185.31 C 555.30 184.27 550.44 177.73 551.47 170.70 C 552.51 163.67 559.05 158.81 566.08 159.84 Z" fill="#cae3fc" fill-rule="nonzero" group-id="1,14" node-id="328" stroke="none" target-height="27.536987" target-width="27.536987" target-x="550.43567" target-y="158.80536"></path></g><g node-id="391"><path d="M 460.76 172.51 C 463.58 179.03 460.57 186.61 454.05 189.42 C 447.52 192.24 439.95 189.23 437.13 182.71 C 434.31 176.18 437.32 168.61 443.85 165.79 C 450.37 162.97 457.95 165.98 460.76 172.51 Z" fill="#cae3fc" fill-rule="nonzero" group-id="1,15" node-id="333" stroke="none" target-height="29.265823" target-width="29.265808" target-x="434.31415" target-y="162.97365"></path></g><g node-id="392"><path d="M 571.55 202.27 C 572.51 203.95 572.76 205.94 572.24 207.80 C 571.73 209.66 570.50 211.25 568.82 212.20 C 567.14 213.15 565.15 213.40 563.29 212.89 C 561.43 212.38 559.85 211.14 558.89 209.47 C 557.94 207.79 557.69 205.80 558.21 203.94 C 558.72 202.07 559.95 200.49 561.63 199.54 C 563.31 198.59 565.30 198.34 567.16 198.85 C 569.02 199.36 570.60 200.60 571.55 202.27 Z" fill="#cae3fc" fill-rule="nonzero" group-id="1,16" node-id="338" stroke="none" target-height="15.062714" target-width="15.062683" target-x="557.6925" target-y="198.33835"></path></g><g node-id="393"><path d="M 519.62 255.12 C 520.38 256.89 520.41 258.89 519.70 260.69 C 518.99 262.48 517.59 263.92 515.82 264.68 C 512.13 266.28 507.84 264.58 506.25 260.88 C 504.66 257.19 506.36 252.91 510.05 251.32 C 511.82 250.55 513.83 250.52 515.62 251.23 C 517.42 251.95 518.85 253.34 519.62 255.12 Z" fill="#faa632" fill-rule="nonzero" group-id="1,17" node-id="343" stroke="none" target-height="15.755798" target-width="15.755798" target-x="504.65778" target-y="250.52081"></path></g><path d="M 639.85 542.22 C 639.85 609.22 585.53 663.54 518.53 663.54 C 451.53 663.54 397.21 609.22 397.21 542.22 C 397.21 475.22 451.53 420.90 518.53 420.90 C 585.53 420.90 639.85 475.22 639.85 542.22 Z" fill="#3a3a77" fill-rule="nonzero" group-id="1" node-id="346" stroke="none" target-height="242.64001" target-width="242.64001" target-x="397.21002" target-y="420.89996"></path><path d="M 551.77 511.84 C 551.77 511.84 516.24 506.07 486.21 511.17 C 486.21 511.17 508.72 520.47 522.03 519.77 C 535.34 519.07 551.77 511.84 551.77 511.84 Z" fill="#f3f8ff" fill-rule="nonzero" group-id="1" node-id="348" stroke="none" target-height="14.399963" target-width="65.56003" target-x="486.21" target-y="506.07"></path><path d="M 521.80 581.89 C 521.80 581.89 519.91 551.65 522.43 536.39 C 536.32 535.01 547.96 525.27 551.77 511.84 C 545.77 511.98 538.07 516.35 524.13 514.52 C 506.39 512.18 499.26 509.52 486.21 511.17 C 489.52 523.87 499.84 533.54 512.73 536.00 C 514.60 544.06 518.13 563.06 515.17 582.06 C 515.17 582.06 499.17 582.69 488.99 596.06 L 547.34 596.06 C 547.34 596.06 544.00 585.86 521.80 581.89 Z" fill="#f3f8ff" fill-rule="nonzero" group-id="1" node-id="350" stroke="none" target-height="86.54001" target-width="65.56003" target-x="486.21" target-y="509.52"></path><path d="M 482.00 601.26 C 481.07 601.26 480.23 600.72 479.84 599.88 C 477.18 594.21 475.82 588.03 475.84 581.77 C 475.84 564.64 486.08 549.16 501.84 542.46 C 486.08 535.76 475.84 520.28 475.84 503.15 C 475.84 501.57 475.92 499.99 476.09 498.42 C 476.16 497.55 476.70 496.80 477.49 496.44 C 478.28 496.08 479.21 496.18 479.90 496.70 C 480.60 497.22 480.96 498.08 480.84 498.94 C 480.69 500.34 480.61 501.74 480.61 503.15 C 480.52 520.89 492.81 536.29 510.12 540.15 C 511.21 540.40 511.98 541.37 511.98 542.48 C 511.98 543.59 511.21 544.56 510.12 544.81 C 498.93 547.36 489.50 554.83 484.46 565.14 C 479.42 575.45 479.32 587.49 484.19 597.88 C 484.71 599.07 484.18 600.46 483.00 601.00 C 482.69 601.16 482.35 601.25 482.00 601.26 Z" fill="#f3f8ff" fill-rule="nonzero" group-id="1" node-id="352" stroke="none" target-height="105.18042" target-width="36.160583" target-x="475.81726" target-y="496.0822"></path><path d="M 558.85 584.16 C 557.53 584.16 556.46 583.09 556.46 581.77 C 556.55 564.03 544.27 548.63 526.96 544.77 C 525.87 544.52 525.10 543.55 525.10 542.44 C 525.10 541.33 525.87 540.36 526.96 540.11 C 538.13 537.54 547.55 530.06 552.58 519.76 C 557.62 509.46 557.73 497.43 552.89 487.04 C 552.44 485.86 552.98 484.54 554.12 484.01 C 555.26 483.49 556.62 483.93 557.22 485.04 C 559.88 490.71 561.24 496.89 561.22 503.15 C 561.22 520.28 550.98 535.76 535.22 542.46 C 550.98 549.16 561.22 564.64 561.22 581.77 C 561.22 583.08 560.16 584.15 558.85 584.16 Z" fill="#f3f8ff" fill-rule="nonzero" group-id="1" node-id="354" stroke="none" target-height="100.67435" target-width="36.140625" target-x="525.1022" target-y="483.48563"></path><path d="M 479.24 480.07 L 557.82 480.07 C 559.98 480.07 561.73 481.82 561.73 483.98 L 561.73 484.47 C 561.73 486.63 559.98 488.38 557.82 488.38 L 479.24 488.38 C 478.20 488.38 477.21 487.97 476.48 487.23 C 475.74 486.50 475.33 485.51 475.33 484.47 L 475.33 483.98 C 475.33 482.94 475.74 481.95 476.48 481.22 C 477.21 480.48 478.20 480.07 479.24 480.07 Z" fill="#f3f8ff" fill-rule="nonzero" group-id="1" node-id="356" stroke="none" target-height="8.309998" target-width="86.399994" target-x="475.33" target-y="480.07"></path><path d="M 479.24 596.05 L 557.82 596.05 C 559.98 596.05 561.73 597.80 561.73 599.96 L 561.73 600.45 C 561.73 602.61 559.98 604.36 557.82 604.36 L 479.24 604.36 C 477.08 604.36 475.33 602.61 475.33 600.45 L 475.33 599.96 C 475.33 597.80 477.08 596.05 479.24 596.05 Z" fill="#f3f8ff" fill-rule="nonzero" group-id="1" node-id="358" stroke="none" target-height="8.309998" target-width="86.399994" target-x="475.33" target-y="596.05"></path><path d="M 371.41 815.98 C 371.41 867.80 329.41 909.80 277.59 909.80 C 225.77 909.80 183.77 867.80 183.77 815.98 C 183.77 764.16 225.77 722.16 277.59 722.16 C 329.41 722.16 371.41 764.16 371.41 815.98 Z" fill="#ffffff" fill-rule="nonzero" group-id="1" node-id="360" stroke="none" target-height="187.64001" target-width="187.64001" target-x="183.76999" target-y="722.16"></path><g node-id="394"><path d="M 371.41 815.98 C 371.41 867.80 329.41 909.80 277.59 909.80 C 225.77 909.80 183.77 867.80 183.77 815.98 C 183.77 764.16 225.77 722.16 277.59 722.16 C 329.41 722.16 371.41 764.16 371.41 815.98 Z" fill="#367cff" fill-opacity="0.1" fill-rule="nonzero" group-id="1,18" node-id="364" stroke="none" target-height="187.64001" target-width="187.64001" target-x="183.76999" target-y="722.16"></path></g><path d="M 292.00 775.80 C 281.09 773.80 270.62 781.01 268.60 791.91 L 263.16 821.37 L 253.16 819.52 L 258.60 790.07 C 260.37 780.46 266.68 772.30 275.54 768.16 C 284.40 764.03 294.70 764.43 303.21 769.25 L 299.61 778.94 C 297.32 777.38 294.73 776.31 292.00 775.80 Z" fill="#36588e" fill-rule="nonzero" group-id="1" node-id="367" stroke="none" target-height="57.341125" target-width="50.049988" target-x="253.16" target-y="764.0289"></path><path d="M 308.07 799.20 C 309.51 791.37 306.18 783.42 299.60 778.94 L 303.20 769.25 C 314.37 775.62 320.30 788.35 318.00 801.00 L 312.54 830.54 L 302.54 828.68 Z" fill="#36588e" fill-rule="nonzero" group-id="1" node-id="369" stroke="none" target-height="61.289917" target-width="20.704102" target-x="299.6" target-y="769.25"></path><path d="M 299.00 848.23 C 297.78 855.36 292.81 861.29 286.00 863.73 C 279.19 866.18 271.59 864.78 266.10 860.06 C 260.61 855.34 258.09 848.04 259.49 840.94 L 263.10 821.37 L 302.60 828.72 Z" fill="none" group-id="1" node-id="371" stroke="none" target-height="44.81366" target-width="44.51126" target-x="258.08875" target-y="821.37"></path><path d="M 324.78 824.00 C 328.32 843.25 318.70 862.51 301.19 871.25 C 283.68 879.98 262.50 876.07 249.26 861.66 C 236.02 847.24 233.92 825.81 244.10 809.10 C 245.41 806.91 247.94 805.76 250.45 806.21 L 319.87 819.00 C 322.38 819.49 324.34 821.48 324.78 824.00 Z" fill="#3b82f4" fill-rule="nonzero" group-id="1" node-id="373" stroke="none" target-height="74.2157" target-width="94.407425" target-x="233.916" target-y="805.7634"></path><path d="M 272.77 833.12 C 273.52 829.02 277.16 826.08 281.33 826.19 C 285.50 826.31 288.96 829.45 289.48 833.59 C 290.01 837.72 287.44 841.63 283.43 842.78 L 281.81 851.54 C 281.43 853.59 279.46 854.94 277.42 854.57 C 275.37 854.19 274.01 852.22 274.39 850.17 L 276.01 841.41 C 273.45 839.48 272.19 836.27 272.77 833.12 Z" fill="#ffffff" fill-rule="nonzero" group-id="1" node-id="375" stroke="none" target-height="28.866272" target-width="17.816559" target-x="272.19162" target-y="826.0771"></path></g></svg>